<?xml version="1.0" encoding="utf-8"?>
<!-- Generator: Adobe Illustrator 20.1.0, SVG Export Plug-In . SVG Version: 6.00 Build 0)  -->
<svg version="1.1" xmlns="http://www.w3.org/2000/svg" xmlns:xlink="http://www.w3.org/1999/xlink" x="0px" y="0px"
	 viewBox="0 0 175 175" enable-background="new 0 0 175 175" xml:space="preserve">
<g id="Background">
</g>
<g id="Header">
</g>
<g id="Menu">
	<g>
		<defs>
			<rect id="SVGID_13_" x="-795.56" y="-1468.665" width="1992.21" height="1107.677"/>
		</defs>
		<clipPath id="SVGID_2_">
			<use xlink:href="#SVGID_13_"  overflow="visible"/>
		</clipPath>
		<g clip-path="url(#SVGID_2_)">
			<g>
				<defs>
					<rect id="SVGID_19_" x="-602.42" y="-1468.665" width="1794.264" height="1104.162"/>
				</defs>
				<clipPath id="SVGID_4_">
					<use xlink:href="#SVGID_19_"  overflow="visible"/>
				</clipPath>
				<g clip-path="url(#SVGID_4_)">
					<path fill="#33C5FF" d="M527.875,490.698l-2.397-0.282c-0.398-0.24-0.504-0.395-0.548-0.491
						c0.394,0.047,0.92,0.109,1.314,0.156l-0.619-0.56c0.192,0,0.343,0.01,0.576,0.039c0.312,0.043,0.508,0.087,0.508,0.088
						C527.098,489.912,527.525,490.383,527.875,490.698 M523.595,487.613l-16.515-16.212l1.059,0.131l16.475,16.203
						C524.428,487.708,524.043,487.652,523.595,487.613 M506.26,469.543l-1.056-0.132
						C263.907,179.94,432.001-336.616,733.912-668.781C335.701-212.486,317.966,249.256,506.26,469.543 M521.059,489.845
						C3.002,397.07-246.963-117.843-147.287-521.942c10.818,45.117,60.432-7.679,101.951-75.825
						c16.883-27.711,58.977-101.733,85.144-190.366C7.12-662.957-111.255-469.072-142.868-508.557
						c-2.47-3.085-3.857-8.452-4.653-12.322C-261.003-0.713,113.486,429.032,520.559,489.387
						C520.709,489.523,520.904,489.713,521.059,489.845 M735.928-670.387c-0.152-0.1-0.24-0.204-0.282-0.254
						c0.153-0.163,0.356-0.381,0.509-0.545l-0.668-0.471c0.121-0.262,0.301-0.396,0.444-0.483c0.368,0.26,0.858,0.606,1.226,0.866
						l-0.959,1.025C736.145-670.271,736.044-670.311,735.928-670.387 M733.281-673.258
						C484.395-840.465,256.983-882.38,57.362-797.841l0.066-0.223c201.421-84.647,428.953-42.807,676.275,124.357
						C733.578-673.571,733.401-673.398,733.281-673.258 M55.115-796.766l-11.561,5.81c0.025-0.055,0.045-0.112,0.057-0.171
						c3.471-1.758,8.098-4.101,11.569-5.859L55.115-796.766 M40.338-789.052c-0.101,0.055-0.205,0.106-0.31,0.154
						c0.036-0.126,0.084-0.295,0.121-0.421l1.228-0.657c0.065,0.062-0.058,0.199-0.059,0.2c-0.181,0.138-0.469,0.25-0.67,0.357
						l-0.065,0.225C40.502-789.145,40.421-789.097,40.338-789.052"/>
					<path opacity="0.051" fill="#33C5FF" d="M505.204,469.411l1.876,1.99c-544.148-96.007-732.766-621.118-659.714-963.275
						C-120.237-430.34,4.367-637.246,51.319-784.447c1.175-3.684,2.657-8.623,3.796-12.319l2.248-1.075
						C4.883-628.655-121.309-427.991-153.352-487.557c-15.639,94.616-57.183,345.948,138.695,630.584
						C76.245,275.12,190.799,347.04,245.85,381.603c1.099,0.69,111.585,69.2,259.138,87.781
						C505.053,469.392,505.146,469.382,505.204,469.411 M768.347-678.313l0.016-0.016L768.347-678.313 M758.745-664.725
						C366.341-248.9,328.641,260.11,539.625,474.627l-31.487-3.095l-1.878-1.989l27.261,2.793
						C273.372,175.075,452.859-356.387,768.347-678.313l2.127,1.594l-11.786,11.952L758.745-664.725 M57.429-798.064l-2.249,1.078
						l2.549-8.846c283.183-133.93,560.016,15.462,699.828,116.434l-1.77,1.811C400.119-934.734,150.576-852.876,59.796-806.21
						L57.429-798.064"/>
					<path fill="#33C5FF" d="M508.138,471.532l-1.059-0.131l-1.876-1.99l1.056,0.132L508.138,471.532 M57.362-797.841l-2.248,1.075
						l0.065-0.22l2.249-1.078L57.362-797.841"/>
					<path fill="#33C5FF" d="M114.74,247.397c43.642,34.094,78.187,35.328,75.437,2.695c-1.535-18.206-20.337-66.119-80.512-117.148
						c-13.025-10.4-21.034-15.789-32.961-22.177c-0.059,0.332-0.138,0.775-0.198,1.107
						c78.901,41.749,137.774,148.59,100.208,159.719C128.606,285.845,10.394,154.02,32.978,111.305
						c5.641-10.669,20.049-10.597,42.824,0.213c0.06-0.333,0.14-0.778,0.2-1.111c-45.549-21.958-51.829,1.763-43.367,28.749
						C43.246,172.999,77.777,218.52,114.74,247.397"/>
					<path fill="#33C5FF" d="M82.55,77.819l-0.252,1.149C47.578,25.483,51.641-23.105,91.17-27.133
						c0.157,0.436,0.366,1.017,0.522,1.453C48.709-19.88,53.48,32.56,82.55,77.819 M92.705-25.74
						c-0.153,0.007-0.357,0.019-0.51,0.028c-0.157-0.436-0.367-1.018-0.525-1.455c5.925-0.316,11.752,0.408,18.335,2.28
						c-0.114,0.372-0.266,0.867-0.38,1.238C107.394-24.261,100.602-26.123,92.705-25.74 M120.178,117.944
						c-19.985-13.821-32.124-30.861-37.308-38.137c0.075-0.343,0.175-0.801,0.25-1.144c45.116,63.951,104.678,67.392,111.012,21.486
						c5.641-40.892-32.708-107.29-83.852-123.61c0.113-0.37,0.264-0.863,0.378-1.233c17.014,5.587,26.509,13.193,35.692,20.549
						c63.08,57.263,64.005,136.724,15.472,137.291C153,133.247,138.614,130.693,120.178,117.944"/>
					<path opacity="0.5" fill="#B9C609" d="M122.619,71.72c13.598,9.223,24.431,2.952,21.465-12.426
						c-0.996-5.165-4.341-15.21-15.552-24.454c-4.867-3.538-8.029-4.918-12.53-5.466c0.391,0.888,0.913,2.072,1.305,2.959
						c18.56,2.608,31.19,32.119,20.743,39.239c-11.614,7.915-34.374-16.375-30.441-32.488c1.128-4.622,4.216-5.836,5.534-6.354
						c-0.39-0.892-0.91-2.081-1.3-2.972C97.711,34.792,106.59,60.848,122.619,71.72"/>
					<path opacity="0.5" fill="#B9C609" d="M106.654,206.1c13.204,10.217,22.891,10.189,21.595-0.062
						c-0.078-0.614-2.138-15.236-22.772-33.149c-5.745-4.63-9.292-6.783-14.055-8.534c0.57,0.952,1.329,2.222,1.899,3.175
						c20.163,7.696,38.836,38.521,29.402,42.584C111.415,214.981,80.039,181.002,85,169.26c0.932-2.206,2.829-2.387,4.085-2.506
						c-0.569-0.957-1.328-2.234-1.897-3.192c-12.343,0.708-2.001,23.144,14.583,38.401
						C103.184,203.263,105.135,204.925,106.654,206.1"/>
					<path fill="#33C5FF" d="M110.473,22.102L102.49,2.786l0.22-0.764l8.248,20.044C110.796,22.057,110.674,22.054,110.473,22.102
						 M102.291,0.969l-0.221,0.764L91.692-25.68l-0.522-1.453l-11.255-33l0.245-0.01l0.253,0.242l0.039-0.11l11.218,32.844
						l0.525,1.455L102.291,0.969"/>
					<path fill="#33C5FF" d="M82.425,152.489c0.216,0.013,0.375,0.062,0.491,0.099c-3.017-5.444-7.04-12.702-10.058-18.146
						l-0.014,0.1l-0.33-0.313l-0.258-0.053l10.139,18.313C82.405,152.488,82.417,152.489,82.425,152.489"/>
					<path fill="#33C5FF" d="M72.515,134.228l0.33,0.313l0.014-0.1l3.647-22.567l0.198-1.107c1.845-9.289,4.159-21.705,6.167-30.96
						l0.25-1.144c9.189-39.129,10.15-43.219,19.369-75.877l0.22-0.764l7.57-25.484l0.378-1.233
						c18.286-57.62,28.05-86.123,53.494-152.143l-0.508-0.373c-24.321,63.278-35.851,96.02-53.637,152.324l-0.38,1.238
						l-7.335,24.618l-0.221,0.764C91.089,41.514,89.401,47.628,82.55,77.819l-0.252,1.149c-1.897,9.43-4.58,21.975-6.296,31.439
						l-0.2,1.111l-3.637,22.378L72.515,134.228"/>
					<path fill="#33C5FF" d="M124.126,55.017c1.687,1.148,3.042,0.419,2.735-1.471c-0.091-0.564-0.091-0.564-9.554-21.214
						l-1.305-2.959l-1.993-4.581c-0.403-0.876-0.791-1.401-1.482-2.008c-1.899-1.473-3.245-0.488-2.975,1.321
						c0.079,0.525,0.079,0.525,2.29,5.651l1.3,2.972l9.14,20.099C122.466,53.184,123.025,54.268,124.126,55.017"/>
					<path fill="#33C5FF" d="M104.788,190.888c1.649,1.276,2.851,1.3,2.737,0.056c-0.067-0.735-0.067-0.735-14.205-23.415
						l-1.899-3.175l-4.873-8.303c-0.572-0.948-1.067-1.56-1.893-2.339c-1.889-1.651-2.948-1.467-2.986-0.455
						c-0.03,0.789-0.03,0.789,5.519,10.305l1.897,3.192l13.35,21.556C102.697,188.7,103.494,189.887,104.788,190.888"/>
				</g>
				<g clip-path="url(#SVGID_4_)">
					<path fill="#33C5FF" d="M1371.996-424.84c-222.062-135.396-459.247-151.301-537.189-156.528
						c0.016,2.663,0.038,6.213,0.054,8.876l30.629,2.124c199.483,18.356,560.056,92.453,733.656,382.466
						c1.436-1.905,3.35-4.444,4.785-6.349C1576.95-239.646,1520.806-334.107,1371.996-424.84 M87.392-391.155l-3.048-5.855
						c-2.948,2.177-5.291,3.94-8.088,6.084c0.915,1.742,2.136,4.064,3.051,5.806l0.498-0.378
						C82.831-387.787,84.745-389.215,87.392-391.155 M71.388-378.98l-3.045-5.773c-2.557,2.034-5.136,4.121-7.667,6.204
						c0.914,1.718,2.134,4.009,3.048,5.726l0.471-0.386C66.539-375.125,68.69-376.851,71.388-378.98 M56.294-366.619l-3.046-5.679
						c-2.71,2.322-4.719,4.075-7.166,6.252c0.906,1.697,2.114,3.96,3.02,5.657l0.441-0.389
						C51.784-362.753,53.739-364.445,56.294-366.619 M42.154-354.131l-3.033-5.607c-2.361,2.185-4.37,4.08-6.718,6.336
						c0.905,1.672,2.111,3.902,3.016,5.574l0.414-0.395C37.949-350.238,39.781-351.95,42.154-354.131 M28.903-341.493l-3.01-5.533
						c-2.174,2.172-3.874,3.904-6.273,6.394c0.898,1.652,2.094,3.854,2.992,5.506L23-335.525
						C25.73-338.331,27.516-340.117,28.903-341.493 M16.534-328.724l-2.985-5.471c-1.991,2.157-3.794,4.15-5.848,6.462
						c0.89,1.631,2.077,3.806,2.967,5.438l0.362-0.405C13.051-324.951,14.594-326.64,16.534-328.724 M1617.795-166.134
						c-3.636-8.092-9.116-18.585-13.023-26.55c-1.434,1.904-3.346,4.443-4.78,6.347c105.147,212.571,16.967,367.213-75.523,459.51
						c2.438-2.416,5.688-5.637,8.126-8.053l0.388-0.392C1697.292,91.318,1656.647-79.654,1617.795-166.134"/>
				</g>
			</g>
			<g>
				<defs>
					<rect id="SVGID_21_" x="-602.42" y="-1468.665" width="1794.264" height="1104.162"/>
				</defs>
				<clipPath id="SVGID_6_">
					<use xlink:href="#SVGID_21_"  overflow="visible"/>
				</clipPath>
				<g clip-path="url(#SVGID_6_)">
					<path fill="#FFFFFF" d="M48.492,173.836c0.003,0.008,0.005,0.018,0.008,0.026c-0.284-0.096-3.153-4.02-3.226-4.255
						c0.035,0.01,0.126,0.038,1.286,1.538C47.781,172.737,48.435,173.692,48.492,173.836"/>
					<path fill="#FFFFFF" d="M1.93,107.497c0.006,0.011,0.014,0.026,0.02,0.037c-0.109-0.102-2.461-3.891-2.68-4.288
						c0.044,0.051,0.089,0.104,0.916,1.42C1.296,106.435,1.841,107.337,1.93,107.497"/>
					<path fill="#FFFFFF" d="M43.51,161.587c0.001,0.014-0.003,0.032-0.004,0.045c-0.007,0.006-0.016,0.013-0.023,0.019
						c-0.563-0.097-4.071-4.924-3.792-5.217c0.131,0.01,0.518,0.319,1.621,1.732C42.786,160.098,43.495,161.349,43.51,161.587"/>
					<path fill="#FFFFFF" d="M41.5,155.785c0.001,0.114-0.121,0.052-0.353-0.179c-0.863-0.858-2.398-3.157-2.162-3.236
						c0.028-0.009,0.211,0.002,1.104,1.142C41.058,154.78,41.497,155.605,41.5,155.785"/>
					<path fill="#FFFFFF" d="M31.109,142.151c0.001,0.02-0.008,0.048-0.02,0.064c-0.397,0.026-2.991-3.725-2.775-4.013
						c0.1-0.008,0.391,0.211,1.213,1.303C30.587,140.951,31.098,141.939,31.109,142.151"/>
					<path fill="#FFFFFF" d="M29.807,136.638c-0.001,0.139-0.133,0.083-0.38-0.161c-0.974-0.961-2.642-3.651-2.259-3.644
						c0.07,0.001,0.323,0.124,1.158,1.229C29.339,135.444,29.809,136.416,29.807,136.638"/>
					<path fill="#FFFFFF" d="M39.472,144.772c-0.025,0.226-0.441-0.112-1.013-0.823c-0.92-1.144-1.656-2.498-1.359-2.499
						c0.073,0,0.323,0.102,1.071,1.048C39.106,143.724,39.495,144.566,39.472,144.772"/>
					<path fill="#FFFFFF" d="M29.07,131.192c-0.016,0.245-0.346,0.034-0.861-0.552c-1.27-1.445-2.72-4.003-2.281-4.024
						c0.092-0.004,0.414,0.127,1.408,1.437C28.551,129.71,29.089,130.906,29.07,131.192"/>
					<path fill="#FFFFFF" d="M28.439,125.17c-0.045,0.356-0.653-0.124-1.445-1.142c-1.378-1.769-2.431-3.924-1.847-3.781
						c0.153,0.037,0.547,0.282,1.475,1.498C27.93,123.532,28.48,124.845,28.439,125.17"/>
					<path fill="#FFFFFF" d="M17.245,109.94c-0.018,0.189-0.281,0.004-0.671-0.473c-0.813-0.995-1.638-2.589-1.358-2.624
						c0.063-0.008,0.278,0.067,0.909,0.928C16.922,108.903,17.264,109.734,17.245,109.94"/>
					<path fill="#FFFFFF" d="M16.839,103.559c-0.037,0.27-0.497-0.098-1.068-0.857c-1.01-1.341-1.744-2.986-1.309-2.934
						c0.113,0.013,0.401,0.171,1.066,1.073C16.444,102.141,16.887,103.212,16.839,103.559"/>
					<path fill="#FFFFFF" d="M17.034,89.29c-0.13,0.632-1.162-0.224-2.208-1.831c-1.269-1.95-1.854-3.875-1.118-3.679
						c0.34,0.09,0.853,0.593,1.525,1.495C16.636,87.262,17.131,88.819,17.034,89.29"/>
					<path fill="#FFFFFF" d="M5.847,73.577c-0.06,0.355-0.523,0.01-1.101-0.821c-0.876-1.26-1.38-2.73-0.898-2.622
						c0.199,0.044,0.501,0.348,0.898,0.902C5.591,72.284,5.898,73.273,5.847,73.577"/>
				</g>
				<g clip-path="url(#SVGID_6_)">
					<path fill="#FFFFFF" d="M110.959,145.906c0.658-0.224-0.188-1.814-1.225-2.298c-0.623-0.291-0.94,0.053-0.677,0.736
						c0.075,0.197,0.161,0.331,0.251,0.474C109.988,145.789,110.682,146,110.959,145.906"/>
					<path fill="#FFFFFF" d="M105.508,137.583c0.849-0.253-0.088-2.234-1.412-2.986c-0.85-0.483-1.384-0.149-1.141,0.714
						c0.092,0.328,0.268,0.618,0.373,0.792C104.154,137.325,105.1,137.704,105.508,137.583"/>
					<path fill="#FFFFFF" d="M99.896,138.113c0.846-0.234-0.114-2.25-1.446-3.038c-0.86-0.509-1.368-0.194-1.11,0.687
						c0.098,0.333,0.277,0.629,0.384,0.805C98.562,137.816,99.498,138.223,99.896,138.113"/>
					<path fill="#FFFFFF" d="M101.085,157.122c0.737-0.242-0.415-2.273-1.666-2.938c-0.661-0.351-1.005-0.09-0.799,0.608
						c0.109,0.37,0.32,0.691,0.445,0.884C99.908,156.853,100.754,157.23,101.085,157.122"/>
					<path fill="#FFFFFF" d="M94.921,148.002c0.847-0.235-0.352-2.453-1.733-3.207c-0.721-0.394-1.119-0.131-0.926,0.611
						c0.103,0.395,0.326,0.75,0.459,0.962C93.616,147.668,94.547,148.106,94.921,148.002"/>
					<path fill="#FFFFFF" d="M102.157,166.567c0.516-0.178-0.384-1.691-1.283-2.159c-0.476-0.247-0.71-0.057-0.545,0.443
						c0.088,0.267,0.247,0.501,0.343,0.641C101.316,166.365,101.928,166.646,102.157,166.567"/>
					<path fill="#FFFFFF" d="M95.637,157.245c0.595-0.176-0.327-1.799-1.333-2.346c-0.52-0.283-0.788-0.088-0.624,0.453
						c0.088,0.289,0.258,0.549,0.359,0.704C94.713,157.003,95.379,157.322,95.637,157.245"/>
					<path fill="#FFFFFF" d="M89.122,147.582c0.489-0.121-0.25-1.485-1.054-1.945c-0.433-0.247-0.658-0.101-0.536,0.348
						c0.064,0.236,0.196,0.446,0.274,0.572C88.351,147.353,88.904,147.635,89.122,147.582"/>
					<path fill="#FFFFFF" d="M83.244,138.464c0.667-0.134-0.157-1.82-1.259-2.578c-0.606-0.416-0.991-0.303-0.894,0.264
						c0.061,0.359,0.292,0.742,0.391,0.906C82.188,138.13,82.938,138.526,83.244,138.464"/>
					<path fill="#FFFFFF" d="M97.556,167.577c0.775-0.259-0.725-2.65-2.058-3.28c-0.61-0.288-0.88,0.001-0.64,0.688
						c0.137,0.394,0.376,0.745,0.519,0.955C96.338,167.25,97.23,167.686,97.556,167.577"/>
					<path fill="#FFFFFF" d="M90.284,157.215c0.427-0.118-0.292-1.369-1.04-1.81c-0.364-0.214-0.565-0.107-0.479,0.255
						c0.059,0.248,0.232,0.513,0.306,0.626C89.587,157.015,90.091,157.268,90.284,157.215"/>
					<path fill="#FFFFFF" d="M84.408,148.392c0.818-0.186-0.453-2.508-1.838-3.357c-0.683-0.419-1.062-0.243-0.921,0.429
						c0.095,0.452,0.396,0.932,0.524,1.137C83.108,147.974,84.043,148.475,84.408,148.392"/>
					<path fill="#FFFFFF" d="M28.276,41.351c0.671,0.118,0.53-1.093-0.256-2.196c-0.71-0.996-1.503-1.318-1.6-0.649
						c-0.048,0.327,0.105,0.744,0.17,0.922C27.1,40.64,27.883,41.282,28.276,41.351"/>
					<path fill="#FFFFFF" d="M99.573,177.515c0.678-0.243-0.779-2.464-1.999-3.047c-0.519-0.248-0.75-0.039-0.574,0.521
						c0.13,0.413,0.431,0.839,0.56,1.021C98.477,177.217,99.289,177.617,99.573,177.515"/>
					<path fill="#FFFFFF" d="M92.271,167.441c0.554-0.164-0.584-1.976-1.54-2.454c-0.451-0.225-0.638-0.024-0.454,0.49
						c0.105,0.293,0.282,0.554,0.388,0.71C91.381,167.168,92.035,167.511,92.271,167.441"/>
					<path fill="#FFFFFF" d="M85.343,157.487c0.489-0.12-0.357-1.587-1.222-2.121c-0.423-0.261-0.643-0.148-0.536,0.274
						c0.072,0.286,0.271,0.59,0.356,0.72C84.549,157.226,85.127,157.54,85.343,157.487"/>
					<path fill="#FFFFFF" d="M26.132,48.694c0.492,0.09,0.362-0.798-0.24-1.637c-0.508-0.709-1.053-0.968-1.143-0.544
						c-0.054,0.254,0.086,0.613,0.145,0.766C25.307,48.221,25.872,48.647,26.132,48.694"/>
					<path fill="#FFFFFF" d="M22.116,38.786c0.452,0.096,0.392-0.658-0.114-1.442c-0.464-0.718-1.051-1.046-1.165-0.65
						c-0.066,0.23,0.058,0.57,0.111,0.715C21.304,38.263,21.845,38.729,22.116,38.786"/>
					<path fill="#FFFFFF" d="M18.554,29.444c0.623,0.145,0.56-0.914-0.121-2.024c-0.65-1.06-1.462-1.538-1.639-0.965
						c-0.101,0.327,0.064,0.808,0.134,1.014C17.404,28.669,18.18,29.357,18.554,29.444"/>
					<path fill="#FFFFFF" d="M94.568,177.506c0.495-0.164-0.687-1.955-1.6-2.426c-0.396-0.204-0.573-0.045-0.429,0.388
						c0.107,0.323,0.349,0.666,0.453,0.812C93.719,177.245,94.351,177.578,94.568,177.506"/>
					<path fill="#FFFFFF" d="M87.258,167.37c0.455-0.125-0.508-1.649-1.321-2.091c-0.343-0.186-0.503-0.058-0.389,0.312
						c0.084,0.272,0.28,0.561,0.363,0.684C86.523,167.118,87.067,167.423,87.258,167.37"/>
					<path fill="#FFFFFF" d="M20.309,46.58c0.432,0.092,0.338-0.671-0.183-1.485c-0.48-0.75-1.062-1.084-1.153-0.661
						c-0.052,0.243,0.083,0.593,0.141,0.743C19.494,46.049,20.042,46.522,20.309,46.58"/>
					<path fill="#FFFFFF" d="M16.513,37.098c0.639,0.149,0.533-0.976-0.202-2.15c-0.696-1.111-1.531-1.61-1.687-1.009
						c-0.089,0.344,0.095,0.849,0.173,1.064C15.331,36.296,16.122,37.007,16.513,37.098"/>
					<path fill="#FFFFFF" d="M12.592,26.854c0.544,0.143,0.478-0.804-0.126-1.809c-0.564-0.938-1.285-1.389-1.428-0.893
						c-0.083,0.288,0.066,0.724,0.13,0.911C11.595,26.153,12.257,26.766,12.592,26.854"/>
					<path fill="#FFFFFF" d="M90.205,178.041c0.647-0.193-0.889-2.522-2.108-3.194c-0.486-0.268-0.704-0.129-0.568,0.363
						c0.125,0.454,0.483,0.961,0.636,1.177C89.123,177.662,89.935,178.122,90.205,178.041"/>
					<path fill="#FFFFFF" d="M82.749,167.687c0.573-0.132-0.596-2.047-1.69-2.77c-0.49-0.323-0.747-0.233-0.639,0.226
						c0.093,0.395,0.4,0.848,0.531,1.042C81.771,167.318,82.496,167.745,82.749,167.687"/>
					<path fill="#FFFFFF" d="M14.541,44.241c0.397,0.097,0.309-0.609-0.173-1.372c-0.444-0.704-0.971-1.026-1.043-0.639
						c-0.042,0.224,0.084,0.552,0.138,0.692C13.814,43.737,14.305,44.183,14.541,44.241"/>
					<path fill="#FFFFFF" d="M10.715,34.624c0.564,0.148,0.503-0.819-0.12-1.917c-0.676-1.19-1.538-1.791-1.677-1.169
						c-0.074,0.332,0.103,0.821,0.178,1.029C9.611,33.828,10.353,34.529,10.715,34.624"/>
					<path fill="#FFFFFF" d="M6.658,23.966c0.407,0.124,0.387-0.528-0.039-1.317c-0.444-0.821-1.066-1.269-1.188-0.856
						c-0.066,0.224,0.053,0.575,0.104,0.724C5.871,23.383,6.394,23.885,6.658,23.966"/>
					<path fill="#FFFFFF" d="M85.477,177.805c0.54-0.14-0.847-2.231-1.878-2.832c-0.414-0.242-0.604-0.128-0.484,0.289
						c0.112,0.39,0.436,0.849,0.575,1.046C84.537,177.44,85.245,177.865,85.477,177.805"/>
					<path fill="#FFFFFF" d="M9.077,42.179c0.472,0.129,0.384-0.708-0.178-1.689c-0.55-0.961-1.265-1.511-1.418-1.09
						c-0.1,0.277,0.105,0.811,0.172,0.987C8.123,41.482,8.769,42.094,9.077,42.179"/>
					<path fill="#FFFFFF" d="M4.852,31.584c0.399,0.121,0.347-0.582-0.102-1.393c-0.476-0.859-1.11-1.324-1.211-0.889
						c-0.055,0.234,0.076,0.596,0.131,0.75C4.045,30.975,4.587,31.504,4.852,31.584"/>
					<path fill="#FFFFFF" d="M1.049,21.446c0.438,0.146,0.438-0.538-0.001-1.436c-0.525-1.072-1.311-1.72-1.45-1.195
						c-0.072,0.27,0.068,0.683,0.128,0.86C0.13,20.727,0.743,21.344,1.049,21.446"/>
					<path fill="#FFFFFF" d="M80.964,177.545c0.508-0.118-0.84-2.145-1.85-2.781c-0.362-0.227-0.541-0.162-0.468,0.17
						c0.087,0.395,0.463,0.929,0.586,1.105C80.059,177.149,80.754,177.594,80.964,177.545"/>
					<path fill="#FFFFFF" d="M7.855,49.936c0.38,0.103,0.271-0.639-0.216-1.471c-0.486-0.832-1.068-1.287-1.173-0.92
						c-0.069,0.239,0.112,0.686,0.172,0.833C7.063,49.331,7.616,49.871,7.855,49.936"/>
					<path fill="#FFFFFF" d="M3.375,39.215c0.321,0.102,0.28-0.446-0.086-1.149c-0.416-0.798-0.987-1.297-1.092-0.953
						c-0.064,0.211,0.088,0.609,0.138,0.74C2.703,38.722,3.168,39.15,3.375,39.215"/>
					<path fill="#FFFFFF" d="M76.374,176.861c0.396-0.064-0.623-1.639-1.453-2.246c-0.247-0.181-0.499-0.277-0.468-0.005
						c0.024,0.204,0.195,0.534,0.51,0.98C75.648,176.514,76.2,176.89,76.374,176.861"/>
					<path fill="#FFFFFF" d="M2.458,47.308c0.335,0.108,0.299-0.452-0.077-1.199c-0.477-0.948-1.195-1.619-1.303-1.217
						c-0.063,0.237,0.12,0.691,0.18,0.84C1.683,46.689,2.215,47.23,2.458,47.308"/>
					<path fill="#FFFFFF" d="M72.435,176.685c0.509-0.067-0.881-2.198-2.01-3.08c-0.419-0.328-0.66-0.343-0.613-0.038
						c0.042,0.273,0.282,0.722,0.713,1.334C71.468,176.181,72.21,176.715,72.435,176.685"/>
					<path fill="#FFFFFF" d="M25.572,139.118c0.015,0.01,0.04,0.017,0.058,0.015c0.102-0.328-2.629-4.281-2.922-4.23
						c-0.021,0.08,0.119,0.429,0.903,1.635C24.666,138.13,25.393,139.006,25.572,139.118"/>
					<path fill="#FFFFFF" d="M17.01,125.89c0.01,0.006,0.026,0.012,0.038,0.011c0.079-0.191-1.534-2.615-1.743-2.62
						c-0.032,0.059,0.138,0.387,0.505,0.976C16.446,125.259,16.895,125.815,17.01,125.89"/>
					<path fill="#FFFFFF" d="M9.359,113.529c0.012,0.008,0.031,0.016,0.045,0.017c0.127-0.174-1.555-2.8-1.8-2.81
						c-0.027,0.043,0.039,0.262,0.514,1.057C8.75,112.828,9.232,113.441,9.359,113.529"/>
					<path fill="#FFFFFF" d="M22.423,136.312c0.01,0.008,0.025,0.016,0.036,0.022c0.006-0.008,0.015-0.019,0.022-0.027
						c-0.16-0.591-2.823-4.497-3.275-4.804c-0.008,0.006-0.019,0.014-0.027,0.02c0.048,0.2,0.38,0.769,1.045,1.79
						C21.422,135.13,22.244,136.176,22.423,136.312"/>
					<path fill="#FFFFFF" d="M13.901,123.143c0.008,0.007,0.021,0.014,0.03,0.02c0.007-0.005,0.016-0.01,0.023-0.015
						c-0.081-0.438-2.206-3.653-2.445-3.698c-0.003,0.056-0.009,0.171,0.727,1.352C13.131,122.215,13.749,123.021,13.901,123.143"/>
					<path fill="#FFFFFF" d="M19.066,132.685c0.008,0.008,0.02,0.017,0.029,0.025c-0.005-0.365-2.707-4.181-2.906-4.354
						c-0.004,0.052-0.01,0.138,0.939,1.593C18.202,131.579,18.919,132.545,19.066,132.685"/>
					<path fill="#FFFFFF" d="M10.875,120.011c0.01,0.01,0.024,0.021,0.034,0.03c0.007-0.003,0.016-0.007,0.023-0.01
						c-0.13-0.482-2.54-4.199-2.964-4.572c-0.007,0.003-0.016,0.006-0.023,0.009c0.044,0.165,0.349,0.698,0.93,1.629
						C9.971,118.831,10.704,119.845,10.875,120.011"/>
					<path fill="#FFFFFF" d="M16.003,128.962c0.007,0.009,0.018,0.02,0.025,0.028c-0.046-0.236-2.53-3.93-2.803-4.236
						c0.006,0.04,0.017,0.106,0.938,1.515C15.2,127.849,15.874,128.81,16.003,128.962"/>
					<path fill="#FFFFFF" d="M7.89,116.405c0.009,0.011,0.023,0.025,0.033,0.036c0.007-0.237-2.874-4.677-3.227-5.072
						c-0.006,0.037-0.015,0.099,1.041,1.786C6.94,115.063,7.72,116.204,7.89,116.405"/>
					<path fill="#FFFFFF" d="M4.555,111.684c0.006,0.009,0.015,0.022,0.022,0.031c-0.047-0.135-2.185-3.505-2.416-3.832
						c0.007,0.023,0.017,0.057,0.801,1.306C3.923,110.719,4.449,111.532,4.555,111.684"/>
				</g>
			</g>
		</g>
		<g id="XMLID_1_" clip-path="url(#SVGID_2_)">
		</g>
	</g>
	<g>
		<g>
			<circle fill="#48ACDD" cx="87.5" cy="87.5" r="86.963"/>
		</g>
		<g>
			<g>
				<g>
					<path fill="#FFFFFF" d="M56.663,125.75L56.663,125.75c-0.305,0-0.586-0.162-0.739-0.426l-3.325-5.76
						c-8.769-1.894-15.093-9.705-15.093-18.721c0-10.563,8.594-19.156,19.157-19.156S75.82,90.28,75.82,100.843
						c0,9.016-6.324,16.827-15.093,18.721l-3.325,5.76C57.25,125.588,56.968,125.75,56.663,125.75z M56.663,83.392
						c-9.623,0-17.451,7.828-17.451,17.451c0,8.333,5.929,15.535,14.097,17.126c0.242,0.047,0.452,0.197,0.576,0.411l2.778,4.812
						l2.779-4.812c0.124-0.214,0.334-0.364,0.576-0.411c8.168-1.591,14.097-8.793,14.097-17.126
						C74.115,91.22,66.286,83.392,56.663,83.392z"/>
				</g>
				<g>
					<path fill="#FFFFFF" d="M56.654,109.151c-4.444,0-8.059-3.616-8.059-8.06c0-4.444,3.616-8.059,8.059-8.059
						c4.444,0,8.06,3.616,8.06,8.059C64.713,105.535,61.098,109.151,56.654,109.151z M56.654,95.358
						c-3.161,0-5.733,2.572-5.733,5.733c0,3.162,2.572,5.734,5.733,5.734c3.162,0,5.734-2.572,5.734-5.734
						C62.387,97.93,59.816,95.358,56.654,95.358z"/>
				</g>
			</g>
			<g>
				<path fill="#FFFFFF" d="M36.206,86.425c-0.362,0.076-0.754-0.022-1.041-0.296c-0.465-0.443-0.483-1.179-0.04-1.644
					c4.653-4.885,10.615-8.201,17.243-9.588c0.629-0.132,1.245,0.271,1.377,0.9c0.132,0.629-0.271,1.245-0.9,1.377
					c-6.165,1.29-11.709,4.373-16.036,8.915C36.64,86.266,36.429,86.379,36.206,86.425z"/>
			</g>
			<g>
				<g>
					<path fill="#FFFFFF" d="M83.12,93.259h-7.192c-0.642,0-1.163-0.521-1.163-1.163V63.393c0-0.642,0.521-1.163,1.163-1.163h7.192
						c0.642,0,1.163,0.521,1.163,1.163v28.703C84.283,92.738,83.762,93.259,83.12,93.259z M77.091,90.933h4.866V64.556h-4.866
						V90.933z"/>
				</g>
				<g>
					<path fill="#FFFFFF" d="M95.786,93.259h-7.192c-0.642,0-1.163-0.521-1.163-1.163V51.54c0-0.642,0.521-1.163,1.163-1.163h7.192
						c0.642,0,1.163,0.521,1.163,1.163v40.556C96.949,92.738,96.428,93.259,95.786,93.259z M89.757,90.933h4.866v-38.23h-4.866
						V90.933z"/>
				</g>
				<g>
					<path fill="#FFFFFF" d="M108.452,93.259h-7.192c-0.642,0-1.163-0.521-1.163-1.163v-35.63c0-0.642,0.521-1.163,1.163-1.163
						h7.192c0.642,0,1.163,0.521,1.163,1.163v35.63C109.615,92.738,109.094,93.259,108.452,93.259z M102.423,90.933h4.866V57.63
						h-4.866V90.933z"/>
				</g>
				<g>
					<path fill="#FFFFFF" d="M121.118,93.259h-7.192c-0.642,0-1.163-0.521-1.163-1.163V40.92c0-0.642,0.521-1.163,1.163-1.163h7.192
						c0.642,0,1.163,0.521,1.163,1.163v51.176C122.281,92.738,121.76,93.259,121.118,93.259z M115.089,90.933h4.866V42.083h-4.866
						V90.933z"/>
				</g>
				<g>
					<path fill="#FFFFFF" d="M133.784,93.259h-7.192c-0.642,0-1.163-0.521-1.163-1.163V77.744c0-0.642,0.521-1.163,1.163-1.163
						h7.192c0.642,0,1.163,0.521,1.163,1.163v14.352C134.947,92.738,134.427,93.259,133.784,93.259z M127.755,90.933h4.866V78.907
						h-4.866V90.933z"/>
				</g>
			</g>
			<g>
				<path fill="#FFFFFF" d="M139.033,93.259H75.928c-0.642,0-1.163-0.521-1.163-1.163c0-0.642,0.521-1.163,1.163-1.163h63.106
					c0.642,0,1.163,0.521,1.163,1.163C140.196,92.738,139.675,93.259,139.033,93.259z"/>
			</g>
			<g>
				<path fill="#FFFFFF" d="M139.033,100.802h-21.511c-0.642,0-1.163-0.521-1.163-1.163c0-0.642,0.521-1.163,1.163-1.163h21.511
					c0.642,0,1.163,0.521,1.163,1.163C140.196,100.281,139.675,100.802,139.033,100.802z"/>
			</g>
			<g>
				<g>
					<path fill="#FFFFFF" d="M117.522,132.81c-0.007,0-0.014,0-0.021,0c-0.398-0.007-0.764-0.217-0.972-0.557l-11.98-19.624
						l-11.636,9.268c-0.5,0.397-1.228,0.319-1.63-0.18l-16.262-20.178c-0.403-0.5-0.324-1.232,0.176-1.635
						c0.499-0.403,1.231-0.324,1.635,0.176l15.536,19.278l11.762-9.369c0.261-0.208,0.6-0.294,0.927-0.236
						c0.328,0.058,0.616,0.254,0.79,0.539l11.713,19.186l11.657-17.644c0.355-0.536,1.075-0.682,1.612-0.329
						c0.536,0.354,0.683,1.076,0.329,1.612l-12.666,19.171C118.277,132.614,117.913,132.81,117.522,132.81z"/>
				</g>
				<g>
					<circle fill="#FFFFFF" cx="92.19" cy="120.987" r="3.596"/>
				</g>
				<g>
					<circle fill="#FFFFFF" cx="104.856" cy="110.898" r="3.596"/>
				</g>
				<g>
					<circle fill="#FFFFFF" cx="117.522" cy="131.647" r="3.596"/>
				</g>
				<g>
					<circle fill="#FFFFFF" cx="130.189" cy="112.476" r="3.596"/>
				</g>
				<g>
					<circle fill="#FFFFFF" cx="75.927" cy="100.809" r="3.596"/>
				</g>
			</g>
		</g>
	</g>
</g>
</svg>
