<?xml version="1.0" encoding="utf-8"?>
<!-- Generator: Adobe Illustrator 20.1.0, SVG Export Plug-In . SVG Version: 6.00 Build 0)  -->
<svg version="1.1" xmlns="http://www.w3.org/2000/svg" xmlns:xlink="http://www.w3.org/1999/xlink" x="0px" y="0px"
	 viewBox="0 0 175 175" enable-background="new 0 0 175 175" xml:space="preserve">
<g id="Background">
</g>
<g id="Header">
</g>
<g id="Menu">
	<g>
		<defs>
			<rect id="SVGID_13_" x="-1342.497" y="-1468.665" width="1992.21" height="1107.677"/>
		</defs>
		<clipPath id="SVGID_2_">
			<use xlink:href="#SVGID_13_"  overflow="visible"/>
		</clipPath>
		<g clip-path="url(#SVGID_2_)">
			<g>
				<defs>
					<rect id="SVGID_19_" x="-1149.357" y="-1468.665" width="1794.264" height="1104.162"/>
				</defs>
				<clipPath id="SVGID_4_">
					<use xlink:href="#SVGID_19_"  overflow="visible"/>
				</clipPath>
				<g clip-path="url(#SVGID_4_)">
					<path opacity="0.051" fill="#33C5FF" d="M578.531,126.588l0.984,0.189C540.188,204.973,420.512,442.934,88.07,476.646
						C-374.335,41.124,212.817-866.628,788.767-868.52c164.184-0.539,249.523,69.222,295.37,106.7l1.492,4.538
						C599.637-1138.89-149.391-405.87-61.698,182.999c26.36,177.01,117.324,260.171,151.568,291.478
						C175.154,462.99,434.684,428.035,578.531,126.588 M795.384-125.775C736.815-271.958,541.348-238.703,484.4-107.121
						C448.298-23.705,482.723,78.816,591.511,98.48l-11.636,27.5l-0.98-0.187l10.476-24.23
						C432.475,68.137,434.266-119.006,557.47-195.155c79.344-49.039,193.23-39.596,238.867,61.172l-3.097,1.79l2.355,6.308
						L795.384-125.775 M1086.376-756.594l-1.49-4.539l30.55,31.333c20.773,90.821,83.986,367.202-293.973,589.853l-0.357-0.968
						c255.975-158.712,354.55-356.36,292.986-587.453L1086.376-756.594"/>
					<path opacity="0.5" fill="#B9C609" d="M490.97,218.872l-4.707,5.424l-2.916-1.269l4.757-5.381L490.97,218.872 M481.514,229.646
						l-4.832,5.323l-3.014-1.356l4.88-5.279L481.514,229.646 M471.813,240.213l-4.953,5.216l-3.107-1.445l4.999-5.171
						L471.813,240.213 M461.871,250.567l-5.049,5.083l-3.197-1.535l5.093-5.038L461.871,250.567 M451.69,260.702l-5.167,4.972
						l-3.283-1.627l5.209-4.926L451.69,260.702 M441.274,270.611l-5.287,4.861l-3.364-1.72l5.327-4.815L441.274,270.611
						 M430.622,280.294l-5.4,4.743l-3.441-1.814l5.438-4.696L430.622,280.294 M419.764,289.722l-5.541,4.647l-3.514-1.908l5.577-4.6
						L419.764,289.722 M408.652,298.934l-5.655,4.526l-3.582-2.004l5.689-4.478L408.652,298.934 M397.313,307.903l-5.765,4.4
						l-3.646-2.101l5.796-4.351L397.313,307.903 M385.75,316.623l-5.85,4.255l-3.705-2.197l5.879-4.207L385.75,316.623
						 M373.97,325.087l-5.962,4.128l-3.76-2.294l5.989-4.08L373.97,325.087 M361.969,333.293l-6.066,3.995l-3.81-2.391l6.091-3.946
						L361.969,333.293 M349.754,341.235l-6.172,3.861l-3.854-2.489l6.194-3.812L349.754,341.235 M337.331,348.904l-6.279,3.725
						l-3.895-2.586l6.299-3.677L337.331,348.904 M324.725,356.283l-6.406,3.599l-3.93-2.682l6.423-3.551L324.725,356.283
						 M311.888,363.398l-6.506,3.456l-3.96-2.778l6.521-3.408L311.888,363.398 M298.853,370.223l-6.608,3.312l-3.985-2.873
						l6.62-3.264L298.853,370.223 M285.619,376.757l-6.674,3.148l-4.005-2.967l6.683-3.101L285.619,376.757 M272.192,382.992
						l-6.768,2.997l-4.02-3.06l6.775-2.951L272.192,382.992 M258.577,388.923l-6.861,2.843l-4.029-3.151l6.865-2.797
						L258.577,388.923 M244.781,394.542l-6.951,2.686l-4.034-3.241l6.952-2.641L244.781,394.542 M230.831,399.835l-7.069,2.537
						l-4.034-3.33l7.068-2.493L230.831,399.835 M216.68,404.817l-7.158,2.374l-4.028-3.416l7.155-2.331L216.68,404.817
						 M202.355,409.472l-7.242,2.208l-4.018-3.5l7.236-2.166L202.355,409.472 M187.865,413.794l-7.32,2.037l-4.002-3.582
						l7.311-1.997L187.865,413.794 M173.213,417.775l-7.367,1.857l-3.981-3.661l7.356-1.818L173.213,417.775 M158.41,421.41
						l-3.782,0.867c-1.441,0.323-2.675,0.561-4.128,0.797c-0.965-1.163-2.251-2.714-3.216-3.878l0.424-0.07
						c1.767-0.301,1.767-0.301,6.733-1.416L158.41,421.41 M495.251,213.83c-0.047,0.057-0.111,0.132-0.159,0.189
						c-0.846-0.357-1.974-0.832-2.82-1.188c1.45-1.702,2.579-3.145,3.898-4.981c1.086,0.013,2.535,0.03,3.621,0.043
						C499.262,208.651,497.655,210.956,495.251,213.83 M140.02,419.912l1.554,4.062c-3.244,0.137-5.934,0.102-9.286-0.118
						c0.051-1.217,0.119-2.84,0.169-4.057l0.475,0.032C135.497,419.985,137.55,420.009,140.02,419.912 M503.855,201.313
						c-0.063,0.114-0.148,0.266-0.211,0.381c-1.279,0.339-2.984,0.791-4.263,1.13c0.337-0.597,1.362-2.414,2.309-4.542
						c0.039-0.088,0.062-0.226,0.131-0.294c1.119-1.104,3.314-1.569,4.734-2.242C506.217,196.539,505.32,198.649,503.855,201.313
						 M124.928,418.895l-1.934,3.817c-3.254-0.598-5.802-1.201-8.793-2.083c1.067-1.032,2.49-2.407,3.558-3.439l0.433,0.127
						C120.448,417.962,122.399,418.419,124.928,418.895 M508.532,189.959c-0.463,1.816-3.55,2.556-5.125,3.572
						c0.41-1.493,0.618-2.619,0.718-3.886c1.551-1.231,3.619-2.872,5.17-4.102C509.251,186.105,509.134,187.599,508.532,189.959
						 M111.289,414.824l-5.059,2.856c-2.689-1.225-4.648-2.278-6.761-3.638c1.885-0.648,4.398-1.511,6.283-2.158l0.311,0.198
						C107.691,413.094,109.205,413.888,111.289,414.824 M509.025,181.514c0.016,0.061,0.035,0.143,0.051,0.204
						c-1.539,1.438-3.591,3.356-5.13,4.795c-0.23-0.942-0.542-1.605-1.078-2.291c1.474-1.58,3.439-3.687,4.913-5.268
						C508.014,179.245,508.634,180.019,509.025,181.514 M101.414,408.51l-7.25,1.361c-0.925-0.923-0.925-0.923-3.75-4.21
						l7.497-1.027l2.238,2.566C100.595,407.701,100.902,408.019,101.414,408.51 M505.499,177.351l-4.596,5.487l-2.463-1.144
						l4.648-5.445L505.499,177.351 M94.431,400.558l-7.476,0.994l-3.376-4.117l7.454-0.962L94.431,400.558 M500.685,175.117
						l-4.698,5.402l-2.422-1.193l4.748-5.359L500.685,175.117 M87.701,392.365l-7.431,0.929l-3.259-4.183l7.409-0.897
						L87.701,392.365 M495.952,172.789l-4.797,5.316l-2.379-1.24l4.845-5.272L495.952,172.789 M81.216,384.058l-7.386,0.865
						l-3.13-4.229l7.363-0.833L81.216,384.058 M491.311,170.374l-4.892,5.228l-2.346-1.292l4.939-5.183L491.311,170.374
						 M74.987,375.662l-7.34,0.802l-3.004-4.271l7.317-0.77L74.987,375.662 M486.742,167.863l-4.984,5.138l-2.303-1.337l5.029-5.092
						L486.742,167.863 M69.006,367.181l-7.293,0.739l-2.868-4.291l7.27-0.709L69.006,367.181 M482.257,165.264l-5.073,5.046
						l-2.259-1.382l5.117-5L482.257,165.264 M63.271,358.621l-7.246,0.678l-2.748-4.329l7.222-0.648L63.271,358.621
						 M477.856,162.577l-5.159,4.954l-2.216-1.426l5.201-4.907L477.856,162.577 M57.774,349.986l-7.198,0.617l-2.631-4.365
						l7.174-0.587L57.774,349.986 M473.54,159.805l-5.243,4.86l-2.162-1.462l5.283-4.812L473.54,159.805 M52.511,341.281
						l-7.149,0.558l-2.515-4.396l7.125-0.528L52.511,341.281 M469.308,156.948l-5.323,4.765l-2.118-1.503l5.362-4.717
						L469.308,156.948 M47.476,332.512l-7.1,0.499l-2.404-4.428l7.076-0.47L47.476,332.512 M465.163,154.01l-5.4,4.668l-2.073-1.545
						l5.437-4.62L465.163,154.01 M42.675,323.7l-7.051,0.441l-2.304-4.476l7.026-0.413L42.675,323.7 M461.104,150.991l-5.474,4.571
						l-2.028-1.585l5.51-4.522L461.104,150.991 M38.082,314.811l-7.001,0.384l-2.196-4.503l6.976-0.356L38.082,314.811
						 M457.14,147.9l-5.545,4.473l-1.993-1.631l5.58-4.423L457.14,147.9 M33.704,305.869l-6.951,0.328l-2.09-4.528l6.926-0.3
						L33.704,305.869 M453.255,144.725l-5.614,4.373l-1.947-1.67l5.647-4.323L453.255,144.725 M29.535,296.876l-6.901,0.273
						l-1.978-4.533l6.876-0.246L29.535,296.876 M449.457,141.474l-5.679,4.273l-1.902-1.708l5.711-4.222L449.457,141.474
						 M25.57,287.833l-6.851,0.219l-1.877-4.554l6.826-0.192L25.57,287.833 M445.747,138.148l-5.742,4.172l-1.849-1.738l5.773-4.121
						L445.747,138.148 M21.807,278.747l-6.801,0.165l-1.779-4.577l6.776-0.139L21.807,278.747 M442.125,134.749l-5.803,4.07
						l-1.803-1.774l5.832-4.019L442.125,134.749 M18.24,269.616l-6.75,0.113l-1.682-4.596l6.725-0.087L18.24,269.616
						 M438.592,131.277l-5.86,3.967l-1.757-1.81l5.888-3.916L438.592,131.277 M14.866,260.446l-6.7,0.061l-1.588-4.616l6.675-0.036
						L14.866,260.446 M435.147,127.735l-5.915,3.864l-1.712-1.845l5.941-3.812L435.147,127.735 M11.687,251.257l-6.65,0.01
						l-1.502-4.654l6.625,0.015L11.687,251.257 M431.791,124.122l-5.967,3.76l-1.666-1.88l5.992-3.707L431.791,124.122
						 M8.685,242.011l-6.6-0.04L0.675,237.3l6.575,0.064L8.685,242.011 M428.531,120.45l-6.017,3.655l-1.628-1.922l6.041-3.602
						L428.531,120.45 M5.865,232.731l-6.55-0.089l-1.321-4.688l6.525,0.113L5.865,232.731 M425.354,116.703l-6.064,3.55
						l-1.581-1.956l6.087-3.497L425.354,116.703 M3.223,223.417l-6.5-0.137l-1.229-4.684l6.475,0.161L3.223,223.417
						 M422.265,112.889l-6.109,3.444l-1.535-1.988l6.13-3.39L422.265,112.889 M0.754,214.069l-6.45-0.185l-1.143-4.698l6.426,0.208
						L0.754,214.069 M419.267,109.01l-6.151,3.337l-1.482-2.012l6.171-3.284L419.267,109.01 M-1.544,204.692l-6.401-0.232
						l-1.059-4.714l6.376,0.255L-1.544,204.692 M416.359,105.067l-6.191,3.23l-1.437-2.045l6.21-3.177L416.359,105.067
						 M-3.674,195.283l-6.352-0.278l-0.976-4.727l6.327,0.301L-3.674,195.283 M413.54,101.06l-6.229,3.123l-1.39-2.076l6.246-3.069
						L413.54,101.06 M-5.636,185.867l-6.303-0.323l-0.9-4.762l6.279,0.346L-5.636,185.867 M410.811,96.992l-6.264,3.015
						l-1.344-2.107l6.28-2.961L410.811,96.992 M-7.44,176.401l-6.254-0.368l-0.82-4.776l6.23,0.39L-7.44,176.401 M408.179,92.871
						l-6.297,2.907l-1.304-2.147l6.312-2.853L408.179,92.871 M-9.086,166.906l-6.206-0.412l-0.742-4.789l6.182,0.434L-9.086,166.906
						 M405.63,88.68l-6.327,2.799l-1.258-2.177l6.342-2.744L405.63,88.68 M-10.576,157.384l-6.158-0.456l-0.665-4.804l6.134,0.478
						L-10.576,157.384 M403.173,84.429l-6.356,2.69l-1.211-2.207l6.369-2.635L403.173,84.429 M-11.912,147.841l-6.11-0.499
						l-0.583-4.768l6.087,0.52L-11.912,147.841 M400.81,80.127l-6.382,2.581l-1.155-2.218l6.394-2.526L400.81,80.127
						 M-13.087,138.344l-6.064-0.541l-0.504-4.732l6.04,0.561L-13.087,138.344 M398.558,75.806l-6.406,2.472l-1.093-2.214
						l6.417-2.418L398.558,75.806 M-14.105,128.915l-6.018-0.582l-0.428-4.7l5.995,0.602L-14.105,128.915 M396.418,71.473
						l-6.428,2.365l-1.037-2.22l6.438-2.311L396.418,71.473 M-14.971,119.552l-5.972-0.622l-0.355-4.667l5.95,0.642L-14.971,119.552
						 M394.387,67.127l-6.447,2.258l-0.982-2.225l6.456-2.205L394.387,67.127 M-15.69,110.253l-5.928-0.661l-0.283-4.636l5.906,0.68
						L-15.69,110.253 M392.463,62.77l-6.464,2.152l-0.928-2.231l6.472-2.099L392.463,62.77 M-16.266,101.035l-5.885-0.699
						l-0.216-4.625l5.863,0.719L-16.266,101.035 M390.648,58.412l-6.48,2.046l-0.879-2.245l6.487-1.994L390.648,58.412
						 M-16.706,91.859l-5.842-0.737l-0.149-4.595l5.821,0.756L-16.706,91.859 M388.933,54.035l-6.493,1.942l-0.827-2.249l6.499-1.89
						L388.933,54.035 M-17.012,82.74l-5.8-0.774l-0.084-4.545l5.779,0.792L-17.012,82.74 M387.32,49.649l-6.505,1.838l-0.776-2.252
						l6.51-1.786L387.32,49.649 M-17.189,73.679l-5.759-0.81l-0.021-4.518l5.738,0.828L-17.189,73.679 M385.806,45.257l-6.514,1.735
						l-0.722-2.246l6.518-1.683L385.806,45.257 M-17.241,64.674l-5.718-0.846l0.04-4.489l5.698,0.863L-17.241,64.674
						 M384.391,40.857l-6.522,1.632l-0.673-2.248l6.525-1.581L384.391,40.857 M-17.171,55.724l-5.679-0.881l0.099-4.463l5.659,0.898
						L-17.171,55.724 M383.072,36.451l-6.528,1.53l-0.625-2.251l6.53-1.48L383.072,36.451 M-16.983,46.826l-5.64-0.915l0.156-4.436
						l5.621,0.932L-16.983,46.826 M381.848,32.04l-6.532,1.429l-0.577-2.252l6.534-1.379L381.848,32.04 M-16.681,38l-5.602-0.949
						l0.213-4.43l5.583,0.965L-16.681,38 M380.719,27.625l-6.535,1.329l-0.367-1.552c-0.053-0.211-0.091-0.322-0.203-0.622
						c1.951-0.425,4.553-0.991,6.504-1.415l0.033,0.092C380.293,25.867,380.293,25.867,380.719,27.625 M-15.905,29.389
						c-0.02,0.07-0.046,0.165-0.066,0.235c-1.635-0.503-3.814-1.174-5.449-1.678c0.448-1.61,0.98-2.876,1.839-4.369
						c1.535,0.738,3.581,1.721,5.115,2.459C-14.727,26.491-15.419,27.7-15.905,29.389 M378.391,23.189l-6.173,1.768
						c-0.747-0.621-1.472-1.065-2.501-1.534c1.697-0.616,3.96-1.437,5.657-2.053l0.226,0.103
						C376.808,22.045,377.616,22.542,378.391,23.189 M-11.863,22.753c-0.054,0.053-0.125,0.124-0.179,0.177
						c-1.369-0.951-3.194-2.219-4.564-3.17c1.229-1.185,2.386-2.081,3.991-3.092c1.149,1.115,2.68,2.602,3.829,3.718
						C-9.273,20.688-10.566,21.486-11.863,22.753 M371.109,19.946l-4.868,2.268c-1.41-0.363-2.668-0.606-4.345-0.84
						c1.176-0.733,2.743-1.71,3.918-2.443l0.355,0.05C367.988,19.25,369.42,19.53,371.109,19.946 M-4.587,18.41
						c-0.081,0.028-0.189,0.067-0.27,0.095c-0.881-1.228-2.056-2.866-2.938-4.095c1.812-0.639,3.397-1.037,5.469-1.375
						c0.583,1.294,1.361,3.02,1.944,4.315C-0.988,17.452-2.6,17.723-4.587,18.41 M359.671,18.372l-2.792,2.529
						c-1.823-0.092-3.466-0.11-5.494-0.059c0.47-0.771,1.097-1.8,1.567-2.571l0.429-0.008
						C355.636,18.23,357.517,18.263,359.671,18.372 M345.912,18.657l-0.309,2.53c-1.636,0.16-1.636,0.16-6.12,0.757l-0.401-2.502
						l2.937-0.37C343.306,18.91,344.47,18.786,345.912,18.657 M333.047,22.772l-6.444,0.793l-0.392-2.594l6.439-0.747
						L333.047,22.772 M320.204,24.315l-6.385,0.712l-0.382-2.683l6.38-0.668L320.204,24.315 M307.426,25.705l-6.348,0.636
						l-0.371-2.771l6.342-0.593L307.426,25.705 M294.717,26.943l-6.314,0.562l-0.357-2.856l6.307-0.52L294.717,26.943
						 M282.078,28.033l-6.283,0.49l-0.343-2.939l6.276-0.449L282.078,28.033 M269.505,28.979l-6.247,0.418l-0.327-3.02l6.238-0.378
						L269.505,28.979 M257.026,29.781l-6.239,0.35l-0.309-3.099l6.231-0.311L257.026,29.781 M244.59,30.444l-6.209,0.281
						l-0.29-3.176l6.199-0.243L244.59,30.444 M232.219,30.971l-6.175,0.213l-0.27-3.25l6.165-0.176L232.219,30.971 M219.914,31.363
						l-6.113,0.146l-0.249-3.323l6.102-0.11L219.914,31.363 M207.679,31.623l-6.083,0.08l-0.226-3.393l6.071-0.046L207.679,31.623
						 M195.507,31.752l-6.047,0.016l-0.202-3.462l6.035,0.018L195.507,31.752 M183.4,31.752l-6.015-0.047l-0.178-3.528l6.002,0.08
						L183.4,31.752 M171.387,31.626l-6.011-0.11l-0.152-3.593l5.998,0.142L171.387,31.626 M159.41,31.375l-5.978-0.172l-0.125-3.655
						l5.965,0.203L159.41,31.375 M147.498,31.001l-5.943-0.233l-0.098-3.715l5.929,0.263L147.498,31.001 M135.65,30.506
						l-5.912-0.293l-0.07-3.774l5.897,0.323L135.65,30.506 M123.867,29.89l-5.855-0.352l-0.04-3.83l5.84,0.38L123.867,29.89
						 M112.145,29.156l-5.824-0.41l-0.011-3.884l5.809,0.437L112.145,29.156 M100.485,28.303l-5.793-0.469l0.02-3.937l5.778,0.495
						L100.485,28.303 M88.89,27.335l-5.765-0.527l0.051-3.987l5.749,0.552L88.89,27.335 M77.378,26.253l-5.757-0.586l0.083-4.036
						l5.741,0.61L77.378,26.253 M65.901,25.055l-5.726-0.643l0.116-4.082l5.71,0.666L65.901,25.055 M54.488,23.744l-5.699-0.7
						l0.149-4.127l5.683,0.722L54.488,23.744 M43.131,22.319l-5.667-0.756l0.182-4.169l5.65,0.777L43.131,22.319 M31.833,20.782
						l-5.614-0.808l0.216-4.21l5.597,0.828L31.833,20.782 M20.596,19.134l-5.588-0.864l0.251-4.249l5.57,0.883L20.596,19.134
						 M4.769,16.976c-0.092-0.001-0.214-0.002-0.305-0.003c-0.267-1.311-0.624-3.06-0.891-4.372
						c2.195,0.032,3.959,0.177,6.086,0.502c-0.059,1.284-0.138,2.995-0.197,4.279C8.767,17.28,6.922,17.007,4.769,16.976"/>
					<path fill="#33C5FF" d="M-19.062,490.698l-2.397-0.282c-0.398-0.24-0.504-0.395-0.548-0.491
						c0.394,0.047,0.92,0.109,1.314,0.156l-0.619-0.56c0.192,0,0.343,0.01,0.576,0.039c0.312,0.043,0.507,0.087,0.508,0.088
						C-19.839,489.912-19.412,490.383-19.062,490.698 M-23.343,487.613l-16.515-16.212l1.059,0.131l16.475,16.203
						C-22.509,487.708-22.894,487.652-23.343,487.613 M-40.677,469.543l-1.056-0.132
						C-283.03,179.94-114.936-336.616,186.975-668.781C-211.236-212.486-228.971,249.256-40.677,469.543 M-25.878,489.845
						C-543.935,397.07-793.9-117.843-694.224-521.942c10.818,45.117,60.432-7.679,101.951-75.825
						c16.883-27.711,58.977-101.733,85.144-190.366c-32.688,125.176-151.062,319.061-182.676,279.576
						c-2.47-3.085-3.857-8.452-4.653-12.322C-807.94-0.713-433.452,429.032-26.379,489.387
						C-26.228,489.523-26.033,489.713-25.878,489.845 M188.99-670.387c-0.152-0.1-0.24-0.204-0.282-0.254
						c0.153-0.163,0.356-0.381,0.509-0.545l-0.668-0.471c0.121-0.262,0.301-0.396,0.444-0.483c0.368,0.26,0.858,0.606,1.226,0.866
						l-0.959,1.025C189.208-670.271,189.107-670.311,188.99-670.387 M186.344-673.258
						C-62.543-840.465-289.954-882.38-489.575-797.841l0.066-0.223c201.421-84.647,428.953-42.807,676.275,124.357
						C186.64-673.571,186.464-673.398,186.344-673.258 M-491.823-796.766l-11.561,5.81c0.025-0.055,0.045-0.112,0.057-0.171
						c3.471-1.758,8.098-4.101,11.569-5.859L-491.823-796.766 M-506.6-789.052c-0.101,0.055-0.205,0.106-0.31,0.154
						c0.036-0.126,0.084-0.295,0.121-0.421l1.228-0.657c0.065,0.062-0.058,0.199-0.059,0.2c-0.181,0.138-0.469,0.25-0.67,0.357
						l-0.065,0.225C-506.435-789.145-506.517-789.097-506.6-789.052"/>
					<path opacity="0.051" fill="#33C5FF" d="M-41.734,469.411l1.876,1.99c-544.148-96.007-732.766-621.118-659.714-963.275
						c32.398,61.534,157.002-145.372,203.954-292.573c1.175-3.684,2.657-8.623,3.796-12.319l2.248-1.075
						c-52.479,169.186-178.672,369.85-210.715,310.284c-15.64,94.616-57.183,345.948,138.695,630.584
						c90.902,132.093,205.456,204.013,260.507,238.576c1.099,0.69,111.585,69.2,259.138,87.781
						C-41.884,469.392-41.792,469.382-41.734,469.411 M221.41-678.313l0.016-0.016L221.41-678.313 M211.808-664.725
						C-180.596-248.9-218.297,260.11-7.312,474.627l-31.487-3.095l-1.878-1.989l27.261,2.793
						C-273.565,175.075-94.078-356.387,221.41-678.313l2.127,1.594l-11.787,11.952L211.808-664.725 M-489.508-798.064l-2.249,1.078
						l2.549-8.846c283.183-133.93,560.016,15.462,699.828,116.434l-1.77,1.811c-355.668-247.148-605.211-165.29-695.991-118.623
						L-489.508-798.064"/>
					<polyline fill="#33C5FF" points="188.709,134.162 157.116,138.143 158.207,142.069 189.857,137.894 188.709,134.162 					"/>
					<path fill="#33C5FF" d="M241.199,243.406l4.658,6.535l-32.798,10.842l-4.637-6.979L241.199,243.406 M232.369,230.127
						l4.334,6.674l-32.747,9.958l-4.296-7.11L232.369,230.127 M224.167,216.565l4.018,6.805l-32.664,9.087l-3.965-7.235
						L224.167,216.565 M216.588,202.754l3.717,6.944l-32.553,8.232l-3.651-7.367L216.588,202.754 M209.626,188.723l3.406,7.045
						l-32.415,7.391l-3.328-7.459L209.626,188.723 M203.253,174.451l3.117,7.171l-32.254,6.565l-3.027-7.579L203.253,174.451
						 M197.469,159.982l2.82,7.261l-32.071,5.754l-2.721-7.661L197.469,159.982 M192.249,145.291l2.542,7.378l-31.869,4.957
						l-2.434-7.772L192.249,145.291"/>
				</g>
				<g clip-path="url(#SVGID_4_)">
					<path fill="#33C5FF" d="M542.423,88.549c133.853,84.185,232.265,220.257,107.045,349.685c-1.236-0.087-1.36-0.095-1.484-0.104
						C858.788,215.927,444.538-50.126,27.134-40.801C-106.789-37.81-187.631-7.797-218.065,3.502
						c-1.725-1.416-1.897-1.557-2.069-1.699C1.538-82.743,329.367-45.45,542.423,88.549"/>
					<path fill="#33C5FF" d="M825.059-424.84C602.997-560.237,365.811-576.141,287.87-581.368c0.016,2.663,0.038,6.213,0.054,8.876
						l30.629,2.124c199.483,18.356,560.056,92.453,733.656,382.466c1.436-1.905,3.35-4.444,4.785-6.349
						C1030.013-239.646,973.868-334.107,825.059-424.84 M-459.545-391.155l-3.048-5.855c-2.948,2.177-5.291,3.94-8.088,6.084
						c0.915,1.742,2.136,4.064,3.051,5.806l0.498-0.378C-464.106-387.787-462.192-389.215-459.545-391.155 M-475.549-378.98
						l-3.045-5.773c-2.557,2.034-5.136,4.121-7.667,6.204c0.914,1.718,2.134,4.009,3.048,5.726l0.471-0.386
						C-480.398-375.125-478.247-376.851-475.549-378.98 M-490.643-366.619l-3.046-5.679c-2.71,2.322-4.719,4.075-7.166,6.252
						c0.906,1.697,2.114,3.96,3.02,5.657l0.441-0.389C-495.154-362.753-493.198-364.445-490.643-366.619 M-504.783-354.131
						l-3.033-5.607c-2.361,2.185-4.37,4.08-6.718,6.336c0.905,1.672,2.111,3.902,3.016,5.574l0.414-0.395
						C-508.988-350.238-507.156-351.95-504.783-354.131 M-518.035-341.493l-3.01-5.533c-2.174,2.172-3.874,3.904-6.273,6.394
						c0.898,1.652,2.094,3.854,2.992,5.506l0.388-0.399C-521.207-338.331-519.421-340.117-518.035-341.493 M-530.403-328.724
						l-2.985-5.471c-1.991,2.157-3.794,4.15-5.848,6.462c0.89,1.631,2.077,3.806,2.967,5.438l0.362-0.405
						C-533.886-324.951-532.343-326.64-530.403-328.724 M1070.857-166.134c-3.636-8.092-9.116-18.585-13.023-26.55
						c-1.434,1.904-3.346,4.443-4.78,6.347c105.147,212.571,16.967,367.213-75.523,459.51c2.438-2.416,5.688-5.637,8.126-8.053
						l0.388-0.392C1150.355,91.318,1109.71-79.654,1070.857-166.134"/>
					<path fill="#33C5FF" d="M461.367,169.571C330.933,88.792,91.421,24.882-126.223,75.446
						c7.169,5.365,14.379,10.704,21.629,16.016c7.268,5.325,14.574,10.622,21.917,15.888c7.36,5.279,14.756,10.526,22.186,15.74
						c7.445,5.225,14.923,10.417,22.432,15.572l12.667-1.636c334.929-19.491,570.195,157.781,534.75,275.273
						c6.214,1.736,12.354,3.387,18.418,4.953c6.043,1.56,12.01,3.036,17.901,4.428c5.869,1.386,11.661,2.689,17.376,3.909
						c5.693,1.215,11.307,2.348,16.844,3.398l9.578-15.622C623.319,325.199,580.218,243.175,461.367,169.571"/>
					<path fill="#FF781D" d="M572.558-59.507c273.521,141.72,335.754,355.243,144.761,496.674c-5.475,0.59-6.864,0.722-8.263,0.846
						c-5.664,0.45-7.1,0.547-8.547,0.635c261.187-206.01-46.72-507.005-460.331-563.538
						c-285.285-38.993-458.131,22.207-535.772,62.159c-2.165-1.928-4.322-3.856-6.472-5.785c-2.147-1.926-4.286-3.852-6.418-5.778
						c-2.129-1.923-4.249-3.847-6.363-5.771c-2.11-1.921-4.213-3.842-6.308-5.762C-94.331-212.608,298.234-201.047,572.558-59.507"
						/>
				</g>
			</g>
			<g>
				<defs>
					<rect id="SVGID_21_" x="-1149.357" y="-1468.665" width="1794.264" height="1104.162"/>
				</defs>
				<clipPath id="SVGID_6_">
					<use xlink:href="#SVGID_21_"  overflow="visible"/>
				</clipPath>
				<g clip-path="url(#SVGID_6_)">
				</g>
				<g clip-path="url(#SVGID_6_)">
				</g>
			</g>
		</g>
		<g id="XMLID_1_" clip-path="url(#SVGID_2_)">
			<g id="XMLID_58_">
				<defs>
					<path id="XMLID_60_" d="M665.968-224.155H-39.106v-248.123c115.686,0,231.373,0,347.059,0c119.338,0,238.677,0,358.015,0
						C665.968-389.57,665.968-306.863,665.968-224.155z"/>
				</defs>
				<clipPath id="XMLID_67_">
					<use xlink:href="#XMLID_60_"  overflow="visible"/>
				</clipPath>
				<defs>
					<filter id="Adobe_OpacityMaskFilter" filterUnits="userSpaceOnUse" x="-8.539" y="-440.4" width="638.597" height="449.956">
						<feFlood  style="flood-color:white;flood-opacity:1" result="back"/>
						<feBlend  in="SourceGraphic" in2="back" mode="normal"/>
					</filter>
				</defs>
				<mask maskUnits="userSpaceOnUse" x="-8.539" y="-440.4" width="638.597" height="449.956" id="XMLID_68_">
					<g id="XMLID_61_" filter="url(#Adobe_OpacityMaskFilter)">
						<defs>
							
								<filter id="Adobe_OpacityMaskFilter_1_" filterUnits="userSpaceOnUse" x="-8.539" y="-440.4" width="638.597" height="449.956">
								<feFlood  style="flood-color:white;flood-opacity:1" result="back"/>
								<feBlend  in="SourceGraphic" in2="back" mode="normal"/>
							</filter>
						</defs>
						<mask maskUnits="userSpaceOnUse" x="-8.539" y="-440.4" width="638.597" height="449.956" id="XMLID_68_">
						</mask>
						
							<radialGradient id="XMLID_69_" cx="-3056.6785" cy="3956.9915" r="0.1579" gradientTransform="matrix(2022.6045 0 0 1425.1333 6182762.5 -5639456)" gradientUnits="userSpaceOnUse">
							<stop  offset="0" style="stop-color:#FFFFFF"/>
							<stop  offset="0.0977" style="stop-color:#F9F9F9"/>
							<stop  offset="0.2218" style="stop-color:#EAEAEA"/>
							<stop  offset="0.36" style="stop-color:#D0D0D0"/>
							<stop  offset="0.5086" style="stop-color:#ABABAB"/>
							<stop  offset="0.6655" style="stop-color:#7D7D7D"/>
							<stop  offset="0.8294" style="stop-color:#444444"/>
							<stop  offset="0.9961" style="stop-color:#020202"/>
							<stop  offset="1" style="stop-color:#000000"/>
						</radialGradient>
						<path id="XMLID_64_" clip-path="url(#XMLID_67_)" mask="url(#XMLID_68_)" fill="url(#XMLID_69_)" d="M630.058-215.422
							c0,124.253-142.954,224.978-319.294,224.978C134.415,9.556-8.539-91.169-8.539-215.422
							c0-124.253,142.954-224.978,319.303-224.978C487.104-440.4,630.058-339.674,630.058-215.422z"/>
					</g>
				</mask>
				
					<radialGradient id="XMLID_70_" cx="-3056.6785" cy="3956.9915" r="0.1579" gradientTransform="matrix(2022.6045 0 0 1425.1333 6182762.5 -5639456)" gradientUnits="userSpaceOnUse">
					<stop  offset="0" style="stop-color:#23729F"/>
					<stop  offset="0.1591" style="stop-color:#236D9B"/>
					<stop  offset="0.3609" style="stop-color:#215D90"/>
					<stop  offset="0.5857" style="stop-color:#1F437F"/>
					<stop  offset="0.8254" style="stop-color:#1C1F66"/>
					<stop  offset="1" style="stop-color:#1A0051"/>
				</radialGradient>
				<path id="XMLID_65_" clip-path="url(#XMLID_67_)" fill="url(#XMLID_70_)" d="M630.058-215.422
					c0,124.253-142.954,224.978-319.294,224.978C134.415,9.556-8.539-91.169-8.539-215.422
					c0-124.253,142.954-224.978,319.303-224.978C487.104-440.4,630.058-339.674,630.058-215.422z"/>
			</g>
		</g>
	</g>
	<circle fill="#48ACDD" cx="87.5" cy="87.5" r="86.963"/>
	<g>
		<path fill="#FFFFFF" d="M84.521,129.903c-0.229,0-0.457-0.06-0.663-0.178L46.99,108.439c-0.411-0.237-0.663-0.674-0.663-1.148
			V64.718c0-0.474,0.252-0.911,0.663-1.148l36.868-21.287c0.411-0.236,0.915-0.236,1.326,0l36.87,21.287
			c0.411,0.236,0.663,0.674,0.663,1.148v7.97c0,0.732-0.594,1.326-1.326,1.326c-0.732,0-1.326-0.594-1.326-1.326v-7.205
			L84.521,44.963L48.979,65.483v41.042l35.543,20.521l17.9-10.334c0.637-0.369,1.445-0.148,1.811,0.485
			c0.366,0.634,0.148,1.445-0.485,1.811l-18.563,10.717C84.979,129.844,84.751,129.903,84.521,129.903z"/>
		<g>
			<path fill="#FFFFFF" d="M90.043,107.38c-0.523,0-1.02-0.313-1.229-0.827l-1.642-4.045c-1.935,0.311-3.93,0.276-5.862-0.099
				l-1.778,3.98c-0.297,0.671-1.088,0.966-1.749,0.671l-4.438-1.973c-0.321-0.143-0.573-0.408-0.699-0.737
				c-0.126-0.328-0.116-0.693,0.028-1.014l1.776-3.987c-1.564-1.183-2.919-2.644-3.984-4.301l-4.113,1.472
				c-0.692,0.245-1.446-0.111-1.695-0.799l-1.645-4.577c-0.119-0.331-0.102-0.696,0.048-1.014c0.15-0.319,0.421-0.564,0.753-0.683
				l4.112-1.475c-0.205-1.718-0.142-3.476,0.192-5.179l-3.982-1.781c-0.666-0.299-0.966-1.081-0.668-1.75l1.98-4.441
				c0.143-0.321,0.407-0.572,0.735-0.697c0.33-0.128,0.694-0.116,1.015,0.027l3.984,1.778c1.048-1.393,2.299-2.6,3.735-3.603
				l-1.647-4.048c-0.133-0.326-0.131-0.691,0.007-1.016c0.136-0.325,0.397-0.581,0.723-0.713l4.507-1.825
				c0.673-0.275,1.448,0.052,1.726,0.73l1.642,4.044c1.935-0.312,3.925-0.279,5.864,0.098l1.781-3.987
				c0.297-0.67,1.081-0.964,1.75-0.67l4.434,1.98c0.321,0.144,0.573,0.409,0.697,0.737c0.126,0.329,0.116,0.694-0.028,1.015
				l-1.78,3.986c1.564,1.179,2.917,2.64,3.982,4.301l4.113-1.469c0.682-0.247,1.445,0.11,1.693,0.798l1.647,4.569
				c0.119,0.331,0.102,0.696-0.048,1.015c-0.15,0.318-0.421,0.563-0.752,0.683l-4.113,1.475c0.207,1.718,0.143,3.477-0.192,5.184
				l3.989,1.779c0.321,0.143,0.571,0.408,0.697,0.737c0.126,0.329,0.116,0.694-0.028,1.015l-1.987,4.442
				c-0.3,0.669-1.091,0.966-1.75,0.669l-3.984-1.78c-1.046,1.383-2.311,2.606-3.728,3.602l1.645,4.049
				c0.131,0.325,0.129,0.69-0.009,1.015c-0.136,0.324-0.395,0.58-0.722,0.712l-4.507,1.829
				C90.378,107.349,90.209,107.38,90.043,107.38z M87.991,99.671c0.53,0,1.022,0.319,1.229,0.827l1.554,3.829l2.049-0.831
				l-1.557-3.832c-0.245-0.604-0.014-1.297,0.544-1.634c1.79-1.081,3.342-2.58,4.488-4.334c0.357-0.547,1.06-0.753,1.65-0.485
				l3.77,1.684l0.904-2.021l-3.775-1.683c-0.595-0.266-0.91-0.925-0.74-1.555c0.547-2.03,0.627-4.184,0.231-6.231
				c-0.124-0.642,0.238-1.278,0.854-1.499l3.894-1.397l-0.749-2.077l-3.894,1.39c-0.611,0.223-1.293-0.038-1.607-0.609
				c-1.112-2.02-2.708-3.744-4.619-4.985c-0.547-0.355-0.754-1.056-0.489-1.653l1.685-3.773L91.4,67.903l-1.686,3.772
				c-0.266,0.593-0.916,0.91-1.552,0.74c-2.228-0.595-4.579-0.633-6.801-0.112c-0.639,0.147-1.284-0.187-1.531-0.792l-1.555-3.831
				l-2.049,0.83l1.559,3.831c0.247,0.604,0.017,1.297-0.542,1.635c-1.826,1.103-3.338,2.562-4.491,4.334
				c-0.356,0.545-1.058,0.754-1.652,0.488l-3.77-1.683l-0.901,2.02l3.77,1.686c0.594,0.266,0.908,0.925,0.739,1.554
				c-0.545,2.025-0.625,4.178-0.231,6.228c0.124,0.642-0.238,1.277-0.854,1.498l-3.892,1.396l0.747,2.083l3.893-1.393
				c0.616-0.219,1.295,0.039,1.607,0.608c1.112,2.015,2.712,3.741,4.626,4.99c0.545,0.355,0.751,1.055,0.485,1.649l-1.68,3.771
				l2.014,0.896l1.683-3.767c0.266-0.593,0.916-0.907,1.552-0.74c2.228,0.595,4.581,0.631,6.804,0.114
				C87.791,99.682,87.891,99.671,87.991,99.671z"/>
			<path fill="#FFFFFF" d="M84.521,93.528c-4.148,0-7.522-3.374-7.522-7.523s3.375-7.524,7.522-7.524
				c4.15,0,7.524,3.375,7.524,7.524S88.671,93.528,84.521,93.528z M84.521,81.132c-2.686,0-4.871,2.186-4.871,4.873
				s2.185,4.872,4.871,4.872c2.688,0,4.873-2.185,4.873-4.872S87.209,81.132,84.521,81.132z"/>
		</g>
		<path fill="#FFFFFF" d="M109.54,133.395c-0.57,0.001-1.144-0.148-1.666-0.458l-4.412-2.627c-0.749-0.447-1.281-1.158-1.495-2.004
			c-0.214-0.846-0.086-1.724,0.361-2.474l14.254-23.932c-4.208-5.306-4.726-12.622-1.22-18.508c3.324-5.58,9.639-8.659,16.094-7.851
			c0.443,0.056,0.828,0.331,1.025,0.734c0.197,0.402,0.176,0.876-0.052,1.26l-5.995,10.064l1.628,6.422l6.421-1.628l5.993-10.064
			c0.23-0.384,0.637-0.627,1.084-0.646c0.421-0.01,0.873,0.189,1.132,0.553c3.787,5.286,4.086,12.308,0.763,17.89
			c-3.506,5.885-10.177,8.914-16.852,7.744l-14.253,23.933C111.741,132.826,110.653,133.395,109.54,133.395z M129.025,78.07
			c-4.642,0.13-8.962,2.613-11.384,6.679c-3.078,5.169-2.454,11.653,1.552,16.135c0.385,0.432,0.447,1.064,0.15,1.562
			l-14.736,24.742c-0.114,0.191-0.091,0.374-0.069,0.466c0.024,0.092,0.091,0.263,0.281,0.376l4.412,2.627
			c0.292,0.172,0.67,0.077,0.842-0.214l14.736-24.742c0.297-0.497,0.886-0.743,1.445-0.612c5.848,1.387,11.846-1.153,14.924-6.322
			c2.422-4.067,2.548-9.048,0.45-13.191l-5.147,8.644c-0.179,0.302-0.473,0.521-0.813,0.607l-8.239,2.089
			c-0.713,0.176-1.431-0.249-1.61-0.96l-2.089-8.239c-0.088-0.34-0.035-0.702,0.145-1.004L129.025,78.07z M135.342,93.543h0.017
			H135.342z"/>
	</g>
</g>
</svg>
