<?xml version="1.0" encoding="utf-8"?>
<!-- Generator: Adobe Illustrator 20.1.0, SVG Export Plug-In . SVG Version: 6.00 Build 0)  -->
<svg version="1.1" xmlns="http://www.w3.org/2000/svg" xmlns:xlink="http://www.w3.org/1999/xlink" x="0px" y="0px"
	 viewBox="0 0 175 175" enable-background="new 0 0 175 175" xml:space="preserve">
<g id="Background">
</g>
<g id="Header">
</g>
<g id="Menu">
	<g>
		<defs>
			<rect id="SVGID_13_" x="-1069.029" y="-1468.665" width="1992.21" height="1107.677"/>
		</defs>
		<clipPath id="SVGID_2_">
			<use xlink:href="#SVGID_13_"  overflow="visible"/>
		</clipPath>
		<g clip-path="url(#SVGID_2_)">
			<g>
				<defs>
					<rect id="SVGID_19_" x="-875.888" y="-1468.665" width="1794.264" height="1104.162"/>
				</defs>
				<clipPath id="SVGID_4_">
					<use xlink:href="#SVGID_19_"  overflow="visible"/>
				</clipPath>
				<g clip-path="url(#SVGID_4_)">
					<path fill="#33C5FF" d="M254.406,490.698l-2.397-0.282c-0.398-0.24-0.504-0.395-0.548-0.491
						c0.394,0.047,0.92,0.109,1.314,0.156l-0.619-0.56c0.192,0,0.343,0.01,0.576,0.039c0.312,0.043,0.508,0.087,0.508,0.088
						C253.629,489.912,254.056,490.383,254.406,490.698 M250.126,487.613l-16.515-16.212l1.059,0.131l16.475,16.203
						C250.959,487.708,250.574,487.652,250.126,487.613 M232.791,469.543l-1.056-0.132
						C-9.562,179.94,158.532-336.616,460.444-668.781C62.232-212.486,44.498,249.256,232.791,469.543 M247.591,489.845
						C-270.467,397.07-520.432-117.843-420.755-521.942c10.818,45.117,60.432-7.679,101.951-75.825
						c16.883-27.711,58.977-101.733,85.144-190.366c-32.688,125.176-151.062,319.061-182.676,279.576
						c-2.47-3.085-3.857-8.452-4.653-12.322C-534.472-0.713-159.983,429.032,247.09,489.387
						C247.241,489.523,247.435,489.713,247.591,489.845 M462.459-670.387c-0.152-0.1-0.24-0.204-0.282-0.254
						c0.153-0.163,0.356-0.381,0.509-0.545l-0.668-0.471c0.121-0.262,0.301-0.396,0.444-0.483c0.368,0.26,0.858,0.606,1.226,0.866
						l-0.959,1.025C462.676-670.271,462.575-670.311,462.459-670.387 M459.812-673.258
						C210.926-840.465-16.486-882.38-216.106-797.841l0.066-0.223c201.421-84.647,428.953-42.807,676.275,124.357
						C460.109-673.571,459.933-673.398,459.812-673.258 M-218.354-796.766l-11.561,5.81c0.025-0.055,0.045-0.112,0.057-0.171
						c3.471-1.758,8.098-4.101,11.569-5.859L-218.354-796.766 M-233.131-789.052c-0.101,0.055-0.205,0.106-0.31,0.154
						c0.036-0.126,0.084-0.295,0.121-0.421l1.228-0.657c0.065,0.062-0.058,0.199-0.059,0.2c-0.181,0.138-0.469,0.25-0.67,0.357
						l-0.065,0.225C-232.966-789.145-233.048-789.097-233.131-789.052"/>
					<path opacity="0.051" fill="#33C5FF" d="M231.735,469.411l1.876,1.99c-544.148-96.007-732.766-621.118-659.714-963.275
						c32.398,61.534,157.002-145.372,203.954-292.573c1.175-3.684,2.657-8.623,3.796-12.319l2.248-1.075
						c-52.479,169.186-178.672,369.85-210.715,310.284c-15.639,94.616-57.183,345.948,138.695,630.584
						C-197.224,275.12-82.67,347.04-27.619,381.603c1.099,0.69,111.585,69.2,259.138,87.781
						C231.584,469.392,231.677,469.382,231.735,469.411 M494.878-678.313l0.016-0.016L494.878-678.313 M485.276-664.725
						C92.872-248.9,55.172,260.11,266.156,474.627l-31.487-3.095l-1.878-1.989l27.261,2.793
						C-0.097,175.075,179.391-356.387,494.878-678.313l2.127,1.594l-11.787,11.952L485.276-664.725 M-216.04-798.064l-2.249,1.078
						l2.549-8.846c283.183-133.93,560.016,15.462,699.828,116.434l-1.77,1.811C126.651-934.734-122.892-852.876-213.672-806.21
						L-216.04-798.064"/>
					<path fill="#33C5FF" d="M234.67,471.532l-1.059-0.131l-1.876-1.99l1.056,0.132L234.67,471.532 M-216.106-797.841l-2.248,1.075
						l0.065-0.22l2.249-1.078L-216.106-797.841"/>
					<path fill="#33C5FF" d="M89.87,52.508l-5.489-1.838l0.532-4.855l5.465,1.839L89.87,52.508 M90.909,42.838l-5.442-1.841
						l0.579-4.823l5.42,1.842L90.909,42.838 M92.046,33.214l-5.397-1.844l0.622-4.769l5.376,1.846L92.046,33.214 M93.273,23.674
						l-5.354-1.847l0.667-4.737l5.333,1.849L93.273,23.674 M94.589,14.197l-5.312-1.851l0.713-4.728l5.291,1.852L94.589,14.197
						 M95.991,4.78l-5.271-1.854l0.755-4.698l5.251,1.856L95.991,4.78 M97.482-4.6l-5.231-1.858l0.792-4.649l5.211,1.859L97.482-4.6
						 M99.05-13.901l-5.192-1.861l0.835-4.643l5.173,1.863L99.05-13.901 M100.699-23.149l-5.155-1.865l0.874-4.615l5.136,1.867
						L100.699-23.149 M102.428-32.364l-5.118-1.869l0.907-4.57l5.1,1.871L102.428-32.364 M104.229-41.506l-5.082-1.873l0.948-4.565
						l5.065,1.875L104.229-41.506 M106.104-50.6l-5.048-1.877l0.984-4.541l5.031,1.879L106.104-50.6 M108.055-59.664l-5.015-1.881
						l1.014-4.497l4.999,1.884L108.055-59.664 M110.072-68.663l-4.983-1.886l1.052-4.494l4.967,1.888L110.072-68.663
						 M112.157-77.615l-4.951-1.891l1.086-4.473l4.936,1.893L112.157-77.615 M114.315-86.544l-4.921-1.895l1.114-4.431l4.906,1.898
						L114.315-86.544 M116.535-95.411l-4.891-1.9l1.151-4.43l4.877,1.903L116.535-95.411 M118.818-104.237l-4.863-1.905l1.183-4.411
						l4.849,1.908L118.818-104.237 M121.166-113.023l-4.835-1.911l1.213-4.39l4.821,1.913L121.166-113.023 M123.581-121.79
						l-4.808-1.916l1.238-4.353l4.795,1.919L123.581-121.79 M126.052-130.5l-4.782-1.922l1.274-4.355l4.769,1.924L126.052-130.5
						 M128.585-139.175l-4.757-1.927l1.304-4.336l4.745,1.93L128.585-139.175 M131.183-147.835l-4.733-1.933l1.327-4.301
						l4.721,1.936L131.183-147.835 M133.834-156.441l-4.709-1.939l1.362-4.305l4.698,1.943L133.834-156.441 M136.544-165.017
						l-4.686-1.946l1.391-4.289l4.675,1.949L136.544-165.017 M139.318-173.58l-4.664-1.952l1.413-4.255l4.654,1.956L139.318-173.58
						 M142.144-182.094l-4.643-1.959l1.447-4.259l4.633,1.962L142.144-182.094 M145.026-190.58l-4.623-1.966l1.476-4.246
						l4.613,1.969L145.026-190.58 M147.972-199.057l-4.603-1.973l1.497-4.214l4.593,1.977L147.972-199.057 M150.967-207.49
						l-4.584-1.98l1.531-4.219l4.575,1.984L150.967-207.49"/>
					<polyline fill="#33C5FF" points="89.154,59.821 89.386,57.379 83.874,55.543 83.63,57.986 89.154,59.821 					"/>
					<polyline fill="#33C5FF" points="85.651,118.226 85.72,115.67 79.903,113.85 79.821,116.406 85.651,118.226 					"/>
					<path fill="#33C5FF" d="M85.461,148.432l-6.005-1.812l-0.02-5.024l5.975,1.814L85.461,148.432 M85.396,138.381l-5.946-1.815
						l0.045-5.033l5.916,1.816L85.396,138.381 M85.46,128.311l-5.888-1.817l0.108-5.042l5.859,1.818L85.46,128.311"/>
					<polyline fill="#33C5FF" points="85.599,155.993 85.544,153.451 79.509,151.64 79.548,154.182 85.598,155.993 					"/>
				</g>
				<g clip-path="url(#SVGID_4_)">
					<path fill="#33C5FF" d="M815.892,88.549c133.853,84.185,232.265,220.257,107.045,349.685c-1.236-0.087-1.36-0.095-1.484-0.104
						C1132.256,215.927,718.007-50.126,300.603-40.801C166.68-37.81,85.837-7.797,55.404,3.502
						c-1.725-1.416-1.897-1.557-2.069-1.699C275.007-82.743,602.836-45.45,815.892,88.549"/>
					<path fill="#33C5FF" d="M1098.527-424.84C876.466-560.237,639.28-576.141,561.339-581.368c0.016,2.663,0.038,6.213,0.054,8.876
						l30.629,2.124c199.483,18.356,560.056,92.453,733.656,382.466c1.436-1.905,3.35-4.444,4.785-6.349
						C1303.482-239.646,1247.337-334.107,1098.527-424.84 M-186.076-391.155l-3.048-5.855c-2.948,2.177-5.291,3.94-8.088,6.084
						c0.915,1.742,2.136,4.064,3.051,5.806l0.498-0.378C-190.638-387.787-188.723-389.215-186.076-391.155 M-202.08-378.98
						l-3.045-5.773c-2.557,2.034-5.136,4.121-7.667,6.204c0.914,1.718,2.134,4.009,3.048,5.726l0.471-0.386
						C-206.93-375.125-204.779-376.851-202.08-378.98 M-217.174-366.619l-3.046-5.679c-2.71,2.322-4.719,4.075-7.166,6.252
						c0.906,1.697,2.114,3.96,3.02,5.657l0.441-0.389C-221.685-362.753-219.729-364.445-217.174-366.619 M-231.314-354.131
						l-3.033-5.607c-2.361,2.185-4.37,4.08-6.718,6.336c0.905,1.672,2.111,3.902,3.016,5.574l0.414-0.395
						C-235.519-350.238-233.688-351.95-231.314-354.131 M-244.566-341.493l-3.01-5.533c-2.174,2.172-3.874,3.904-6.273,6.394
						c0.898,1.652,2.094,3.854,2.992,5.506l0.388-0.399C-247.738-338.331-245.953-340.117-244.566-341.493 M-256.934-328.724
						l-2.985-5.471c-1.991,2.157-3.794,4.15-5.848,6.462c0.89,1.631,2.077,3.806,2.967,5.438l0.362-0.405
						C-260.417-324.951-258.874-326.64-256.934-328.724 M1344.326-166.134c-3.636-8.092-9.116-18.585-13.023-26.55
						c-1.434,1.904-3.346,4.443-4.78,6.347c105.147,212.571,16.967,367.213-75.523,459.51c2.438-2.416,5.688-5.637,8.126-8.053
						l0.388-0.392C1423.823,91.318,1383.178-79.654,1344.326-166.134"/>
					<path fill="#33C5FF" d="M734.836,169.571C604.402,88.792,364.889,24.882,147.245,75.446
						c7.169,5.365,14.379,10.704,21.629,16.016c7.268,5.325,14.574,10.622,21.917,15.888c7.36,5.279,14.756,10.526,22.186,15.74
						c7.445,5.225,14.923,10.417,22.432,15.572l12.667-1.636c334.929-19.491,570.195,157.781,534.75,275.273
						c6.214,1.736,12.354,3.387,18.418,4.953c6.043,1.56,12.01,3.036,17.901,4.428c5.869,1.386,11.661,2.689,17.376,3.909
						c5.693,1.215,11.307,2.348,16.844,3.398l9.578-15.622C896.788,325.199,853.686,243.175,734.836,169.571"/>
					<path fill="#FF781D" d="M846.027-59.507c273.521,141.72,335.754,355.243,144.761,496.674c-5.475,0.59-6.864,0.722-8.263,0.846
						c-5.664,0.45-7.1,0.547-8.547,0.635c261.187-206.01-46.72-507.005-460.331-563.538
						C228.362-163.884,55.515-102.683-22.125-62.732c-2.165-1.928-4.322-3.856-6.472-5.785c-2.147-1.926-4.286-3.852-6.418-5.778
						c-2.129-1.923-4.249-3.847-6.363-5.771c-2.11-1.921-4.213-3.842-6.308-5.762C179.137-212.608,571.702-201.047,846.027-59.507"
						/>
				</g>
			</g>
			<g>
				<defs>
					<rect id="SVGID_21_" x="-875.888" y="-1468.665" width="1794.264" height="1104.162"/>
				</defs>
				<clipPath id="SVGID_6_">
					<use xlink:href="#SVGID_21_"  overflow="visible"/>
				</clipPath>
				<g clip-path="url(#SVGID_6_)">
				</g>
				<g clip-path="url(#SVGID_6_)">
				</g>
			</g>
		</g>
		<g id="XMLID_1_" clip-path="url(#SVGID_2_)">
		</g>
	</g>
	<g>
		<circle fill="#48ACDD" cx="87.5" cy="87.5" r="86.963"/>
		<g>
			<path fill="#FFFFFF" d="M123.254,97.539c0.263,0,0.517-0.105,0.704-0.292l21.377-21.377c0.371-0.371,0.39-0.964,0.045-1.358
				c-14.607-16.724-35.707-26.315-57.887-26.315c-22.17,0-43.265,9.586-57.873,26.299c-0.345,0.394-0.325,0.988,0.045,1.358
				l21.377,21.377c0.2,0.2,0.477,0.306,0.76,0.29c0.283-0.016,0.546-0.152,0.722-0.373c3.83-4.797,8.509-8.693,13.906-11.58
				c0.485-0.259,0.667-0.862,0.408-1.347c-0.258-0.485-0.861-0.67-1.347-0.408c-5.311,2.841-9.955,6.616-13.819,11.233
				L31.735,75.108c14.203-15.85,34.471-24.921,55.758-24.921c21.297,0,41.57,9.078,55.772,24.938l-19.937,19.936
				c-8.914-10.656-21.911-16.744-35.835-16.744c-3.695,0-7.373,0.433-10.931,1.286c-0.535,0.128-0.865,0.666-0.736,1.2
				c0.13,0.535,0.671,0.861,1.2,0.736c3.406-0.817,6.927-1.231,10.467-1.231c13.685,0,26.436,6.143,34.983,16.857
				c0.176,0.222,0.439,0.358,0.722,0.373C123.216,97.539,123.236,97.539,123.254,97.539z"/>
			<path fill="#FFFFFF" d="M87.466,122.751c8.601,0,15.598-6.999,15.598-15.601c0-8.601-6.997-15.597-15.598-15.597
				c-0.588,0-1.181,0.034-1.761,0.098c-0.546,0.061-0.94,0.553-0.877,1.1c0.061,0.546,0.564,0.94,1.1,0.877
				c0.506-0.057,1.024-0.085,1.538-0.085c7.503,0,13.607,6.103,13.607,13.606c0,7.504-6.104,13.61-13.607,13.61
				c-7.504,0-13.609-6.106-13.609-13.61c0-2.412,0.64-4.782,1.851-6.855c0.277-0.474,0.118-1.084-0.358-1.361
				c-0.472-0.279-1.083-0.118-1.361,0.358c-1.389,2.376-2.123,5.094-2.123,7.858C71.866,115.753,78.864,122.751,87.466,122.751z"/>
			<path fill="#FFFFFF" d="M81.723,107.151c0-0.198,0.012-0.398,0.034-0.6l-14.779-26.69c-0.515-0.929-0.248-2.035,0.634-2.627
				c0.881-0.594,2.004-0.424,2.669,0.402l19.687,24.35c1.977,0.956,3.24,2.956,3.24,5.165c0,3.166-2.575,5.743-5.741,5.743
				C84.299,112.894,81.723,110.317,81.723,107.151z M68.719,78.897L68.719,78.897l14.598,26.363
				c0.045,0.026,0.089,0.054,0.131,0.087c0.302,0.236,0.442,0.625,0.359,0.998c-0.062,0.285-0.093,0.548-0.093,0.806
				c0,2.069,1.684,3.752,3.752,3.752c2.069,0,3.751-1.684,3.751-3.752c0-1.498-0.892-2.849-2.271-3.444
				c-0.148-0.063-0.279-0.162-0.38-0.288L68.732,78.887l0,0C68.731,78.887,68.719,78.897,68.719,78.897z M69.493,78.262h0.013
				H69.493z"/>
			<g>
				<path fill="#FFFFFF" d="M87.449,60.717c0.549,0,0.995-0.446,0.995-0.995V49.179c0-0.55-0.446-0.995-0.995-0.995
					c-0.55,0-0.995,0.446-0.995,0.995v10.542C86.453,60.271,86.899,60.717,87.449,60.717z"/>
				<path fill="#FFFFFF" d="M105.884,64.492c0.401,0,0.778-0.242,0.929-0.639l4.138-10.773c0.197-0.513-0.06-1.089-0.573-1.286
					c-0.508-0.198-1.089,0.058-1.286,0.573l-4.138,10.773c-0.197,0.513,0.06,1.089,0.573,1.286
					C105.644,64.471,105.765,64.492,105.884,64.492z"/>
				<path fill="#FFFFFF" d="M124.626,74.591c0.324,0,0.64-0.157,0.832-0.447l6.755-10.222c0.303-0.458,0.176-1.076-0.283-1.379
					s-1.077-0.176-1.379,0.283l-6.755,10.222c-0.303,0.458-0.176,1.076,0.283,1.379C124.248,74.538,124.438,74.591,124.626,74.591z"
					/>
			</g>
			<g>
				<path fill="#FFFFFF" d="M69.073,64.492c0.119,0,0.24-0.021,0.356-0.066c0.513-0.197,0.77-0.774,0.573-1.286l-4.14-10.773
					c-0.197-0.515-0.779-0.77-1.286-0.573c-0.513,0.197-0.77,0.774-0.573,1.286l4.14,10.773
					C68.296,64.25,68.674,64.492,69.073,64.492z"/>
				<path fill="#FFFFFF" d="M50.331,74.591c0.188,0,0.379-0.053,0.547-0.165c0.459-0.303,0.586-0.92,0.283-1.379l-6.753-10.222
					c-0.303-0.459-0.921-0.586-1.379-0.283c-0.459,0.303-0.586,0.92-0.282,1.379l6.752,10.222
					C49.691,74.434,50.007,74.591,50.331,74.591z"/>
			</g>
		</g>
	</g>
</g>
</svg>
