<?xml version="1.0" encoding="utf-8"?>
<!-- Generator: Adobe Illustrator 20.1.0, SVG Export Plug-In . SVG Version: 6.00 Build 0)  -->
<svg version="1.1" xmlns="http://www.w3.org/2000/svg" xmlns:xlink="http://www.w3.org/1999/xlink" x="0px" y="0px"
	 viewBox="0 0 175 175" enable-background="new 0 0 175 175" xml:space="preserve">
<g id="Background">
</g>
<g id="Header">
</g>
<g id="Menu">
	<g>
		<defs>
			<rect id="SVGID_13_" x="-522.092" y="-1468.665" width="1992.21" height="1107.677"/>
		</defs>
		<clipPath id="SVGID_2_">
			<use xlink:href="#SVGID_13_"  overflow="visible"/>
		</clipPath>
		<g clip-path="url(#SVGID_2_)">
			<g>
				<defs>
					<rect id="SVGID_19_" x="-328.951" y="-1468.665" width="1794.264" height="1104.162"/>
				</defs>
				<clipPath id="SVGID_4_">
					<use xlink:href="#SVGID_19_"  overflow="visible"/>
				</clipPath>
				<g clip-path="url(#SVGID_4_)">
					<path fill="#33C5FF" d="M801.343,490.698l-2.397-0.282c-0.398-0.24-0.504-0.395-0.548-0.491
						c0.394,0.047,0.92,0.109,1.314,0.156l-0.619-0.56c0.192,0,0.343,0.01,0.576,0.039c0.312,0.043,0.508,0.087,0.508,0.088
						C800.567,489.912,800.994,490.383,801.343,490.698 M797.063,487.613l-16.515-16.212l1.059,0.131l16.475,16.203
						C797.897,487.708,797.511,487.652,797.063,487.613 M779.729,469.543l-1.056-0.132
						C537.376,179.94,705.469-336.616,1007.381-668.781C609.169-212.486,591.435,249.256,779.729,469.543 M794.528,489.845
						C276.47,397.07,26.506-117.843,126.182-521.942c10.818,45.117,60.432-7.679,101.951-75.825
						c16.883-27.711,58.977-101.733,85.144-190.366C280.589-662.957,162.214-469.072,130.6-508.557
						c-2.47-3.085-3.857-8.452-4.653-12.322C12.466-0.713,386.954,429.032,794.027,489.387
						C794.178,489.523,794.373,489.713,794.528,489.845 M1009.396-670.387c-0.152-0.1-0.24-0.204-0.282-0.254
						c0.153-0.163,0.356-0.381,0.509-0.545l-0.668-0.471c0.121-0.262,0.301-0.396,0.444-0.483c0.368,0.26,0.858,0.606,1.226,0.866
						l-0.959,1.025C1009.613-670.271,1009.513-670.311,1009.396-670.387 M1006.75-673.258
						C757.863-840.465,530.451-882.38,330.831-797.841l0.066-0.223c201.421-84.647,428.953-42.807,676.275,124.357
						C1007.046-673.571,1006.87-673.398,1006.75-673.258 M328.583-796.766l-11.561,5.81c0.025-0.055,0.045-0.112,0.057-0.171
						c3.471-1.758,8.098-4.101,11.569-5.859L328.583-796.766 M313.806-789.052c-0.101,0.055-0.205,0.106-0.31,0.154
						c0.036-0.126,0.084-0.295,0.121-0.421l1.228-0.657c0.065,0.062-0.058,0.199-0.059,0.2c-0.181,0.138-0.469,0.25-0.67,0.357
						l-0.065,0.225C313.971-789.145,313.889-789.097,313.806-789.052"/>
					<path opacity="0.051" fill="#33C5FF" d="M778.672,469.411l1.876,1.99C236.4,375.394,47.782-149.717,120.834-491.874
						c32.398,61.534,157.002-145.372,203.954-292.573c1.175-3.684,2.657-8.623,3.796-12.319l2.248-1.075
						c-52.479,169.186-178.672,369.85-210.715,310.284c-15.639,94.616-57.183,345.948,138.695,630.584
						C349.714,275.12,464.267,347.04,519.319,381.603c1.099,0.69,111.585,69.2,259.138,87.781
						C778.522,469.392,778.614,469.382,778.672,469.411 M1041.816-678.313l0.016-0.016L1041.816-678.313 M1032.214-664.725
						C639.81-248.9,602.109,260.11,813.094,474.627l-31.487-3.095l-1.878-1.989l27.261,2.793
						c-260.149-297.261-80.662-828.722,234.826-1150.649l2.127,1.594l-11.787,11.952L1032.214-664.725 M330.898-798.064
						l-2.249,1.078l2.549-8.846c283.183-133.93,560.016,15.462,699.828,116.434l-1.77,1.811
						C673.588-934.734,424.045-852.876,333.265-806.21L330.898-798.064"/>
				</g>
			</g>
			<g>
				<defs>
					<rect id="SVGID_21_" x="-328.951" y="-1468.665" width="1794.264" height="1104.162"/>
				</defs>
				<clipPath id="SVGID_6_">
					<use xlink:href="#SVGID_21_"  overflow="visible"/>
				</clipPath>
				<g clip-path="url(#SVGID_6_)">
				</g>
				<g clip-path="url(#SVGID_6_)">
				</g>
			</g>
		</g>
		<g id="XMLID_1_" clip-path="url(#SVGID_2_)">
		</g>
	</g>
	<g>
		<circle fill="#48ACDD" cx="87.5" cy="87.5" r="86.963"/>
	</g>
	<g>
		<g>
			<path fill="none" stroke="#FFFFFF" stroke-width="3" stroke-miterlimit="10" d="M78.736,110.045h-5.929v-17.27
				c0-6.805,5.568-12.373,12.373-12.373h4.64c6.805,0,12.373,5.568,12.373,12.373v17.27h-5.928"/>
			<circle fill="none" stroke="#FFFFFF" stroke-width="3" stroke-miterlimit="10" cx="87.5" cy="70.219" r="9.795"/>
			<polyline fill="none" stroke="#FFFFFF" stroke-width="3" stroke-miterlimit="10" points="96.264,89.939 96.264,139.687 
				78.736,139.687 78.736,89.939 			"/>
			<line fill="none" stroke="#FFFFFF" stroke-width="3" stroke-miterlimit="10" x1="87.5" y1="114.813" x2="87.5" y2="139.687"/>
		</g>
		<line fill="none" stroke="#FFFFFF" stroke-width="3" stroke-miterlimit="10" x1="46.1" y1="81.166" x2="46.1" y2="102.863"/>
		<line fill="none" stroke="#FFFFFF" stroke-width="3" stroke-miterlimit="10" x1="76.794" y1="50.784" x2="56.952" y2="62.24"/>
		<line fill="none" stroke="#FFFFFF" stroke-width="3" stroke-miterlimit="10" x1="118.786" y1="62.666" x2="98.207" y2="50.784"/>
		<line fill="none" stroke="#FFFFFF" stroke-width="3" stroke-miterlimit="10" x1="128.9" y1="102.863" x2="128.9" y2="81.166"/>
		<g>
			<circle fill="none" stroke="#FFFFFF" stroke-width="3" stroke-miterlimit="10" cx="87.5" cy="44.603" r="9.29"/>
		</g>
		<circle fill="none" stroke="#FFFFFF" stroke-width="3" stroke-miterlimit="10" cx="128.9" cy="68.691" r="9.29"/>
		<circle fill="none" stroke="#FFFFFF" stroke-width="3" stroke-miterlimit="10" cx="46.1" cy="68.691" r="9.29"/>
		<circle fill="none" stroke="#FFFFFF" stroke-width="3" stroke-miterlimit="10" cx="46.1" cy="115.128" r="9.29"/>
		<circle fill="none" stroke="#FFFFFF" stroke-width="3" stroke-miterlimit="10" cx="128.9" cy="115.128" r="9.29"/>
		<line fill="none" stroke="#FFFFFF" stroke-width="3" stroke-miterlimit="10" x1="72.106" y1="83.589" x2="56.959" y2="74.912"/>
		<line fill="none" stroke="#FFFFFF" stroke-width="3" stroke-miterlimit="10" x1="118.781" y1="74.488" x2="102.193" y2="83.991"/>
		
			<line fill="none" stroke="#FFFFFF" stroke-width="3" stroke-miterlimit="10" x1="104.96" y1="102.488" x2="118.591" y2="110.358"/>
		<line fill="none" stroke="#FFFFFF" stroke-width="3" stroke-miterlimit="10" x1="56.952" y1="110.045" x2="69.391" y2="102.863"/>
	</g>
</g>
</svg>
